<svg xmlns="http://www.w3.org/2000/svg" xmlns:xlink="http://www.w3.org/1999/xlink" version="1.1" width="983.85416" height="434.82199" viewBox="0,0,983.85416,434.82199 undefined undefined undefined"><g transform="translate(267.77354,10.82534)"><g data-paper-data="{&quot;isPaintingLayer&quot;:true}" fill-rule="nonzero" stroke="none" stroke-width="1" stroke-linecap="butt" stroke-linejoin="miter" stroke-miterlimit="10" stroke-dasharray="" stroke-dashoffset="0" style="mix-blend-mode: normal"><path d="M654.16907,189.8562c10.5235,13.23129 19.82135,26.8197 24.13324,43.03555c1.85651,6.98187 2.83783,14.25723 3.52545,21.46521c0.38159,4.00055 0.98645,6.82901 5.18524,8.521c8.16577,3.29056 14.15173,9.11115 18.01215,17.12222c1.87598,3.89301 3.91785,7.72906 6.18189,11.40793c7.32843,11.90823 5.83173,24.53021 -0.76544,35.12485c-7.83411,12.58133 -11.48889,26.08176 -14.84552,39.99622c-2.06256,8.54993 -6.12207,16.01764 -11.57697,22.95447c-5.0274,6.39313 -9.08899,13.5379 -13.98621,20.04266c-8.13501,10.80542 -26.01965,18.53479 -40.08008,12.16345c-4.54999,-2.06183 -13.6023,-3.06689 -17.96954,-3.02563c-16.59717,0.15674 -33.30835,1.14301 -49.75702,-0.45038c-10.87653,-1.05359 -21.34558,-6.0965 -32.07446,-9.07428c-2.13983,-0.59399 -5.03631,-0.69269 -6.89557,0.28687c-14.68188,7.73547 -29.45038,7.13116 -44.31335,0.93951c-4.58691,-1.91089 -8.86932,-4.54596 -13.42828,-6.53522c-1.16895,-0.51013 -3.375,-0.38843 -4.2334,0.39612c-13.26727,12.12579 -28.92944,15.62817 -46.32379,13.38562c-4.11847,-0.53088 -8.27081,-0.89056 -12.41895,-1.08307c-13.67114,-0.63434 -24.83875,-8.15295 -36.82483,-13.36878c-3.1145,-1.35528 -5.28027,-1.02863 -8.25244,0.60907c-12.04572,6.63702 -25.44586,9.77911 -38.85138,9.22882c-8.05884,-0.33081 -15.91901,-5.31909 -23.88342,-8.17261c-13.36334,-4.78809 -23.62927,-14.06036 -33.71912,-23.50226c-2.42883,-2.27283 -4.33899,-2.74878 -7.45435,-1.52618c-10.94116,4.29352 -21.81158,8.96253 -33.08691,12.1532c-10.82971,3.06457 -22.07074,5.76123 -33.23712,6.26416c-12.80618,0.57672 -26.08676,0.85022 -38.15006,-5.2923c-2.6814,-1.36529 -4.34619,-0.8529 -6.58246,1.06806c-20.30722,17.44385 -48.15582,20.10034 -70.17636,5.07703c-5.98364,-4.0824 -6.05124,-4.17645 -10.427,1.65656c-7.69156,10.25305 -16.84363,19.72015 -29.83652,20.74829c-12.22348,0.96735 -25.08359,-0.25989 -37.04443,-3.11523c-20.97385,-5.00714 -40.4778,-14.17114 -58.21034,-26.68268c-2.95245,-2.08313 -4.92111,-2.00641 -7.77574,0.46515c-9.39703,8.13593 -20.95198,12.00214 -32.79553,14.56396c-11.17552,2.41748 -22.52913,4.24951 -33.89735,5.48108c-15.85832,1.7179 -31.51073,1.02167 -46.36078,-6.15637c-7.55242,-3.65057 -15.82078,-5.85681 -23.26267,-9.69177c-16.51273,-8.50922 -30.40665,-20.24274 -40.49254,-36.05438c-10.34482,-16.21759 -17.1269,-34.00381 -19.22457,-52.98981c-1.37571,-12.45145 -0.73492,-25.30713 0.63089,-37.8038c0.68665,-6.28256 4.50425,-12.45316 7.76971,-18.18204c11.48368,-20.14694 26.79388,-37.26785 44.89041,-51.49762c10.11078,-7.95044 21.99708,-13.643 33.08547,-20.34943c0.28432,-0.17197 0.60742,-0.28033 0.88971,-0.45508c2.96402,-1.83441 7.269,-3.06268 8.4734,-5.70349c1.02924,-2.2568 -1.53442,-6.12756 -2.45145,-9.30102c-3.48423,-12.05753 -5.32291,-24.04746 0.72414,-35.97873c0.54966,-1.08447 -0.18429,-3.45392 -1.11637,-4.55319c-6.59351,-7.7764 -12.79934,-15.83853 -15.91468,-25.65976c-7.08161,-22.32513 0.2444,-38.67458 20.45525,-50.38667c12.15152,-7.04178 25.61079,-8.85512 39.22848,-10.15068c13.04124,-1.24072 26.07425,-2.57156 39.12126,-3.74753c27.23828,-2.45508 54.14668,-1.50943 80.339,7.54367c5.14587,1.77863 10.55682,3.0614 15.95026,3.73769c2.66834,0.33458 5.65808,-1.00091 8.35913,-1.97714c10.98727,-3.97104 22.3963,-4.83565 33.91412,-4.65633c10.30026,0.16034 20.64767,0.17433 30.86902,1.25157c4.75455,0.50105 9.4686,2.96876 13.83215,5.25049c7.81012,4.08397 15.25592,8.86389 23.05881,12.96312c1.60501,0.84317 4.49948,0.68736 6.13287,-0.21497c10.76709,-5.94812 21.16806,-12.57503 32.0434,-18.30716c13.0311,-6.86839 25.95398,-14.1253 40.87421,-16.5201c10.98624,-1.76337 21.85355,-1.84537 32.67093,0.84346c7.66791,1.90598 12.32605,7.72656 16.60321,13.66878c3.10559,4.31444 6.52918,4.42442 11.27216,3.39685c11.17877,-2.42187 22.44891,-5.48611 33.77313,-5.92174c16.74109,-0.64397 32.63916,3.74498 46.13544,14.4539c2.30206,1.82663 4.01416,1.92958 6.61212,0.57767c16.28668,-8.47519 33.55102,-11.48424 51.76807,-8.73209c1.80603,0.27286 3.74713,0.6814 5.44977,0.28038c1.34448,-0.31667 2.98175,-1.53479 3.52417,-2.77469c4.58917,-10.48845 8.35248,-21.38299 13.55341,-31.54692c5.67743,-11.09529 16.86084,-14.29897 28.15814,-16.60791c9.3562,-1.91222 18.86676,-1.18774 27.58887,1.82904c12.66687,4.3812 22.53381,13.0589 24.33032,27.01202c1.49628,11.62032 0.86938,23.5379 0.83252,35.32274c-0.0221,7.08467 -0.71564,14.16722 -1.11365,21.36415c26.47601,1.83868 42.67352,18.81806 56.27728,38.62624c10.76221,15.67066 15.49103,33.67731 15.37518,52.81049c-0.0091,1.49829 0.0376,2.99844 0.11926,4.49438c0.01514,0.27844 0.3219,0.54102 0.61005,0.99255c19.16113,-5.60495 38.95032,-3.62604 58.4223,-2.97412c6.79114,0.22739 13.60584,6.65112 19.93274,10.94751c3.18433,2.16238 5.30115,5.89688 8.12195,9.1994M-252.823,332.32959c3.78542,12.21774 9.96317,23.09637 18.20743,32.85644c8.81059,10.4306 18.92975,19.14325 31.73807,24.29834c5.27292,2.12225 11.34951,2.94434 15.88183,6.06805c10.09349,6.95648 21.21207,9.01111 32.97237,9.61981c14.12021,0.73071 27.73833,-2.54907 41.5647,-4.54352c14.63144,-2.1106 27.48999,-7.66834 39.00604,-16.43634c5.10025,-3.88324 8.42252,-3.25317 13.46053,0.43256c17.48117,12.789 37.05807,21.73987 58.06729,26.69531c10.48834,2.47382 21.76169,3.72815 32.43143,2.7691c12.23697,-1.09991 20.15512,-10.56427 27.21356,-20.10522c6.267,-8.47107 7.4917,-8.58453 16.54913,-2.68689c0.55792,0.36328 1.0928,0.76233 1.63437,1.15027c19.78723,14.17395 47.40381,10.96698 65.45428,-7.52991c1.19992,-1.22961 4.58713,-2.01105 5.85767,-1.22467c12.67456,7.84442 27.01831,8.13702 40.66727,6.80438c18.27231,-1.784 36.60471,-5.30359 52.94125,-14.8194c2.52081,-1.46838 4.59088,-3.69196 6.97925,-5.41394c1.40155,-1.0105 3.41895,-2.77704 4.47113,-2.37994c4.28943,1.61884 8.80469,2.26758 12.40814,6.19971c9.83881,10.73584 21.15131,19.79108 35.1756,24.66541c7.22931,2.5127 14.63177,6.43433 21.93799,6.39459c12.56836,-0.06818 25.10553,-2.91187 35.79083,-10.48431c2.58405,-1.83124 4.61749,-1.82928 7.29431,-0.41968c6.02344,3.17181 12.22961,5.99439 18.29065,9.09735c11.18762,5.72754 23.44104,5.64148 35.50232,6.89233c15.74438,1.63293 29.22766,-2.23791 39.8985,-14.47742c0.88666,-1.01709 3.50244,-1.54578 4.7843,-1.01654c4.71106,1.94513 9.20593,4.41711 13.76849,6.71796c12.43646,6.27148 25.7132,8.96375 38.45874,2.94367c7.91962,-3.74066 13.99225,-4.52081 22.07819,-0.91809c13.09259,5.83344 27.25842,8.06976 41.63202,8.93744c12.19959,0.73639 24.41754,0.59802 36.12817,-2.57526c5.81232,-1.57495 9.75329,-0.61255 14.26373,2.46088c2.64941,1.80542 5.84717,3.56085 8.9317,3.83453c10.13336,0.89917 18.84161,-2.89368 25.0921,-10.79358c6.68945,-8.45471 12.64063,-17.49793 18.80475,-26.36023c1.31885,-1.89624 2.47528,-4.01984 3.18256,-6.20807c4.18176,-12.93793 8.16028,-25.9415 12.32074,-38.88647c1.1001,-3.42291 1.92694,-7.23874 4.04401,-9.97195c6.1499,-7.93976 8.02508,-16.31149 3.95831,-25.55884c-2.26819,-5.15747 -5.46777,-9.90549 -7.73309,-15.064c-3.1192,-7.10306 -8.55005,-11.69965 -15.59912,-13.76312c-5.96735,-1.74679 -7.10297,-5.77603 -7.48773,-10.7897c-0.12659,-1.64981 0.26611,-3.34741 0.07629,-4.98312c-0.8371,-7.21219 -0.07629,-15.24264 -3.07147,-21.44162c-6.52197,-13.49841 -12.4502,-27.63278 -23.38922,-38.5452c-6.43115,-6.4155 -12.14746,-14.18555 -21.89477,-15.58341c-21.19403,-3.03946 -42.31549,-4.09824 -62.68091,4.7807c-1.54266,0.67258 -4.31317,0.53531 -5.45209,-0.45078c-1.08716,-0.94128 -1.16522,-3.51648 -1.01215,-5.31604c0.25165,-2.95795 1.50787,-5.86389 1.54413,-8.80157c0.38312,-31.03955 -12.94,-55.3494 -36.66327,-74.64529c-8.56128,-6.96352 -18.64154,-8.85759 -29.06799,-9.97545c-4.60187,-0.49339 -6.34845,-3.07603 -6.12158,-7.40933c0.63471,-12.12376 1.6853,-24.24409 1.77356,-36.3716c0.05749,-7.88947 -0.67413,-15.90506 -2.15558,-23.6532c-1.65069,-8.63347 -8.91492,-13.96677 -16.09424,-16.46634c-10.30054,-3.58626 -21.62024,-4.21742 -32.42688,-0.64845c-4.19507,1.38545 -9.31134,2.84848 -11.80389,6.01251c-9.42249,11.96066 -16.51202,25.24232 -17.77856,40.89461c-0.29645,3.66345 -1.8457,5.46545 -5.89441,4.4386c-22.43115,-5.68913 -43.79657,-3.85182 -63.72864,8.89633c-1.41461,0.90472 -4.58331,0.55289 -6.10217,-0.46255c-5.13104,-3.43036 -9.36707,-8.68913 -14.88684,-10.9516c-13.71698,-5.62228 -28.16943,-7.93878 -43.00855,-4.5612c-7.61365,1.73297 -15.24414,3.42802 -22.77533,5.47731c-7.74915,2.10863 -8.75134,1.98618 -12.90747,-4.65106c-5.62347,-8.98068 -13.08893,-14.52167 -24.15619,-15.19859c-13.94528,-0.85298 -27.56952,1.05318 -39.84656,7.10846c-17.81869,8.78856 -34.92773,19.04031 -52.15182,28.99262c-4.28186,2.47411 -7.7182,4.64867 -11.45938,-0.44724c-0.7146,-0.9734 -2.27591,-1.31548 -3.43018,-1.9774c-5.77383,-3.31104 -11.62775,-6.49281 -17.29129,-9.98328c-7.40356,-4.5628 -15.20203,-7.33537 -24.04532,-7.08296c-7.99268,0.22815 -15.99905,-0.06659 -23.99564,0.07701c-10.85995,0.19499 -21.62796,0.91246 -31.2608,6.88078c-1.17438,0.72763 -2.89715,1.2609 -4.18442,0.99759c-6.00024,-1.22731 -12.13306,-2.22131 -17.86288,-4.28569c-28.27841,-10.18836 -57.25734,-10.90384 -86.68536,-7.3571c-10.8636,1.30933 -21.78802,2.24156 -32.71169,2.89409c-15.02592,0.89757 -29.48889,3.60585 -41.93742,12.61623c-7.30279,5.28584 -13.17426,11.99626 -13.64503,21.60614c-0.4565,9.31879 1.39678,18.2372 6.84161,26.07008c3.21315,4.62241 6.29698,9.40106 10.03879,13.57123c3.83988,4.27945 8.05814,7.94412 1.47083,13.15561c-0.10974,0.08682 -0.11459,0.3057 -0.16928,0.46262c-4.70912,13.51083 -3.03618,26.16705 5.34155,37.77924c2.88176,3.99435 1.92722,7.5011 -2.70726,8.97449c-2.04149,0.64905 -4.00987,1.62897 -5.88411,2.68472c-6.50157,3.66229 -12.96687,7.39017 -19.40999,11.15466c-12.06076,7.04666 -24.38854,13.98291 -33.39967,24.85629c-9.98985,12.05438 -22.07764,22.34116 -28.98217,37.09927c-3.98854,8.5253 -8.66456,16.36868 -8.16608,26.17279c0.25333,4.98261 0.24453,10.00345 -0.04452,14.98383c-0.72238,12.44681 2.73425,24.02167 7.2325,36.20123z" fill="#8fa2ab"/><path d="M-252.96124,331.96426c-4.36001,-11.81424 -7.81663,-23.3891 -7.09426,-35.83591c0.28905,-4.98038 0.29785,-10.00122 0.04452,-14.98383c-0.49848,-9.80411 4.17754,-17.64749 8.16608,-26.17279c6.90453,-14.75812 18.99231,-25.04489 28.98217,-37.09927c9.01112,-10.87338 21.33891,-17.80963 33.39967,-24.85629c6.44312,-3.7645 12.90842,-7.49237 19.40999,-11.15466c1.87424,-1.05576 3.84262,-2.03568 5.88411,-2.68472c4.63448,-1.47339 5.58902,-4.98013 2.70726,-8.97449c-8.37773,-11.61218 -10.05067,-24.2684 -5.34155,-37.77924c0.05469,-0.15692 0.05954,-0.37579 0.16928,-0.46262c6.58731,-5.21149 2.36905,-8.87616 -1.47083,-13.15561c-3.74181,-4.17017 -6.82564,-8.94882 -10.03879,-13.57123c-5.44483,-7.83289 -7.2981,-16.7513 -6.84161,-26.07008c0.47077,-9.60988 6.34224,-16.3203 13.64503,-21.60614c12.44853,-9.01038 26.9115,-11.71866 41.93742,-12.61623c10.92366,-0.65253 21.84808,-1.58476 32.71169,-2.89409c29.42802,-3.54674 58.40695,-2.83125 86.68536,7.3571c5.72983,2.06438 11.86264,3.05838 17.86288,4.28569c1.28726,0.26331 3.01004,-0.26996 4.18442,-0.99759c9.63284,-5.96832 20.40085,-6.68579 31.2608,-6.88078c7.99658,-0.1436 16.00296,0.15114 23.99564,-0.07701c8.84329,-0.25241 16.64175,2.52016 24.04532,7.08296c5.66354,3.49046 11.51746,6.67224 17.29129,9.98328c1.15427,0.66193 2.71558,1.004 3.43018,1.9774c3.74118,5.0959 7.17752,2.92134 11.45938,0.44724c17.22409,-9.9523 34.33313,-20.20406 52.15182,-28.99261c12.27704,-6.05528 25.90128,-7.96144 39.84656,-7.10846c11.06726,0.67693 18.53271,6.21791 24.15619,15.19859c4.15613,6.63724 5.15832,6.75969 12.90747,4.65106c7.53119,-2.04929 15.16168,-3.74434 22.77533,-5.47731c14.83911,-3.37758 29.29156,-1.06108 43.00855,4.5612c5.51978,2.26247 9.7558,7.52124 14.88684,10.9516c1.51886,1.01544 4.68756,1.36728 6.10217,0.46255c19.93207,-12.74815 41.29748,-14.58546 63.72864,-8.89633c4.04871,1.02686 5.59796,-0.77515 5.89441,-4.4386c1.26654,-15.65228 8.35608,-28.93394 17.77856,-40.89461c2.49255,-3.16403 7.60883,-4.62706 11.80389,-6.01251c10.80664,-3.56897 22.12634,-2.93781 32.42688,0.64845c7.17932,2.49957 14.44354,7.83287 16.09424,16.46634c1.48145,7.74814 2.21307,15.76373 2.15558,23.6532c-0.08826,12.1275 -1.13886,24.24783 -1.77356,36.3716c-0.22687,4.3333 1.51972,6.91594 6.12158,7.40933c10.42645,1.11786 20.50671,3.01193 29.06799,9.97545c23.72327,19.2959 37.04639,43.60574 36.66327,74.64529c-0.03625,2.93768 -1.29248,5.84363 -1.54413,8.80157c-0.15308,1.79956 -0.07501,4.37476 1.01215,5.31604c1.13892,0.98608 3.90942,1.12335 5.45209,0.45078c20.36542,-8.87894 41.48688,-7.82016 62.68091,-4.7807c9.74731,1.39786 15.46362,9.16791 21.89477,15.58341c10.93903,10.91241 16.86725,25.04678 23.38922,38.5452c2.99518,6.19898 2.23438,14.22943 3.07147,21.44162c0.18982,1.63571 -0.20288,3.33331 -0.07629,4.98312c0.38477,5.01367 1.52039,9.04291 7.48773,10.7897c7.04907,2.06348 12.47992,6.66007 15.59912,13.76312c2.26532,5.15851 5.4649,9.90652 7.73309,15.064c4.06677,9.24734 2.19159,17.61908 -3.95831,25.55884c-2.11707,2.73322 -2.94391,6.54904 -4.04401,9.97195c-4.16046,12.94498 -8.13898,25.94855 -12.32074,38.88647c-0.70728,2.18823 -1.86371,4.31183 -3.18256,6.20807c-6.16412,8.8623 -12.1153,17.90552 -18.80475,26.36023c-6.25049,7.8999 -14.95874,11.69275 -25.0921,10.79358c-3.08453,-0.27368 -6.28229,-2.02911 -8.9317,-3.83453c-4.51044,-3.07342 -8.45142,-4.03583 -14.26373,-2.46088c-11.71063,3.17328 -23.92859,3.31164 -36.12817,2.57526c-14.3736,-0.86768 -28.53943,-3.104 -41.63202,-8.93744c-8.08594,-3.60272 -14.15857,-2.82257 -22.07819,0.91809c-12.74554,6.02008 -26.02228,3.32782 -38.45874,-2.94367c-4.56256,-2.30084 -9.05743,-4.77283 -13.76849,-6.71796c-1.28186,-0.52924 -3.89764,-0.00055 -4.7843,1.01654c-10.67084,12.2395 -24.15411,16.11035 -39.8985,14.47742c-12.06128,-1.25085 -24.3147,-1.1648 -35.50232,-6.89233c-6.06103,-3.10297 -12.26721,-5.92554 -18.29065,-9.09735c-2.67682,-1.40961 -4.71027,-1.41156 -7.29431,0.41968c-10.6853,7.57245 -23.22247,10.41614 -35.79083,10.48431c-7.30621,0.03973 -14.70868,-3.8819 -21.93799,-6.39459c-14.02429,-4.87433 -25.33679,-13.92957 -35.1756,-24.66541c-3.60345,-3.93213 -8.11871,-4.58087 -12.40814,-6.19971c-1.05219,-0.3971 -3.06958,1.36945 -4.47113,2.37994c-2.38837,1.72199 -4.45844,3.94556 -6.97925,5.41394c-16.33655,9.51581 -34.66895,13.0354 -52.94125,14.8194c-13.64896,1.33264 -27.99271,1.04004 -40.66727,-6.80438c-1.27054,-0.78638 -4.65774,-0.00494 -5.85767,1.22467c-18.05048,18.49689 -45.66705,21.70386 -65.45428,7.52991c-0.54156,-0.38794 -1.07645,-0.78699 -1.63437,-1.15027c-9.05743,-5.89764 -10.28214,-5.78418 -16.54913,2.68689c-7.05844,9.54095 -14.97659,19.00531 -27.21356,20.10522c-10.66974,0.95905 -21.94308,-0.29529 -32.43143,-2.7691c-21.00922,-4.95544 -40.58612,-13.90631 -58.06729,-26.69531c-5.03801,-3.68573 -8.36028,-4.3158 -13.46053,-0.43256c-11.51605,8.76801 -24.3746,14.32574 -39.00604,16.43634c-13.82637,1.99445 -27.44449,5.27423 -41.5647,4.54352c-11.7603,-0.6087 -22.87888,-2.66333 -32.97237,-9.61981c-4.53232,-3.12372 -10.60891,-3.9458 -15.88183,-6.06805c-12.80832,-5.15509 -22.92748,-13.86774 -31.73807,-24.29834c-8.24426,-9.76007 -14.42201,-20.6387 -18.34567,-33.22177M-128.28384,244.26294c14.00694,-4.05353 28.017,-8.09637 42.01445,-12.18234c1.04001,-0.30359 2.60959,-0.68543 2.88435,-1.42206c2.4319,-6.51981 5.58183,-13.11377 2.08438,-20.16574c-2.43277,-4.90524 -4.80925,-9.98038 -8.14543,-14.24927c-2.52673,-3.23315 -6.16772,-6.62936 -9.94069,-7.66437c-12.20607,-3.34851 -24.85048,-5.97751 -37.33037,-1.76975c-13.78259,4.64703 -27.27946,10.14713 -40.85603,15.39157c-1.48567,0.57382 -2.8152,1.76993 -3.98107,2.9173c-6.40926,6.30734 -12.76701,12.66763 -19.09733,19.05444c-3.46715,3.49811 -7.55591,6.6376 -10.12238,10.7197c-6.19036,9.84604 -11.92071,20.01181 -17.25393,30.34924c-1.80116,3.49127 -3.2247,8.18524 -2.4372,11.81198c2.21539,10.20285 5.32141,20.25589 8.70589,30.15268c8.22216,24.04303 25.61773,39.13602 49.30774,46.20218c15.57952,4.64697 32.27761,4.76202 47.87339,0.03601c14.68317,-4.44949 28.72081,-11.20224 42.71507,-17.65195c4.48908,-2.06891 8.4959,-5.92896 11.74551,-9.79208c7.48239,-8.89496 10.18991,-19.80707 12.14426,-31.0834c1.83785,-10.60425 0.35765,-20.63931 -4.01349,-30.13818c-1.76152,-3.82791 -5.30167,-6.94745 -8.40729,-10.00909c-2.17613,-2.14533 -4.28809,-1.61499 -6.78595,0.7208c-8.68164,8.11829 -18.7605,14.11725 -30.64577,15.94003c-6.20114,0.95105 -12.62427,0.54352 -18.94812,0.58023c-6.11862,0.03552 -12.31184,0.40662 -18.33661,-0.39261c-5.70076,-0.75629 -9.64705,-5.66046 -9.86726,-10.41037c-0.23216,-5.00787 3.02748,-9.2739 8.89153,-11.24066c5.66425,-1.89969 11.40134,-3.58218 17.80235,-5.70428M403.90204,207.54584c-6.1239,-2.79019 -12.17511,-7.69839 -18.38745,-7.91162c-11.48212,-0.3941 -23.32812,0.81375 -34.53296,3.44162c-16.97613,3.98138 -31.05707,13.62268 -43.66968,25.78906c-6.36621,6.14096 -7.96222,12.22791 -5.49182,20.32755c4.48242,14.69623 6.77875,29.73065 7.31995,45.15057c0.57983,16.52414 -4.58722,30.30252 -16.6748,41.18549c2.89313,8.35297 7.12891,15.19055 15.60632,19.00977c7.2309,3.25769 13.57507,9.40619 21.02576,11.06226c15.75836,3.50256 31.82776,3.52734 47.60358,-1.86468c9.00531,-3.078 16.5343,-7.03149 22.72516,-14.95483c4.09222,-5.23733 6.9361,-10.7717 9.64453,-16.48557c7.06519,-14.90497 13.47797,-30.13171 12.9823,-47.0954c-0.42725,-14.62122 -0.49414,-29.33035 -2.26666,-43.81134c-1.51953,-12.41397 -2.2428,-25.95422 -15.88422,-33.84287M247.67389,209.74979c-11.7121,-2.20554 -23.42273,-6.19363 -35.1366,-6.20306c-18.04114,-0.01453 -36.08517,2.52869 -53.75799,6.99207c-4.85388,1.22589 -6.88284,3.1293 -5.89966,8.08487c3.68088,18.55307 7.22848,37.13272 10.9487,55.67783c4.64099,23.13501 10.20666,46.1366 8.99206,70.03522c-0.07565,1.48843 0.93662,4.21469 1.82434,4.38583c8.45309,1.62985 17.02277,4.13358 25.4942,3.91193c25.10233,-0.65686 48.0491,-8.62018 69.24142,-22.27728c17.00305,-10.95737 23.47125,-26.00537 20.09235,-45.56265c-1.89361,-10.96051 -4.08002,-21.87509 -6.35956,-32.76324c-4.19672,-20.04562 -13.41492,-36.04922 -35.43927,-42.2815M484.96155,139.46545c1.34943,1.85968 3.18848,3.53549 3.96735,5.60944c4.39862,11.71304 8.19568,23.5871 7.24738,36.38757c-0.07147,0.96521 -0.23389,2.47916 0.27978,2.84274c3.53796,2.5047 7.03369,6.22714 10.94342,6.79334c6.89581,0.9986 14.07696,0.01471 21.13904,-0.11993c11.02222,-0.21008 15.17358,-4.22604 15.61621,-15.03091c0.11572,-2.82428 0.68188,-5.64719 0.60809,-8.45938c-0.61218,-23.35474 -10.12164,-42.49027 -27.3465,-58.11887c-10.98407,-9.96619 -22.92139,-13.7912 -37.38245,-8.33624c-6.82996,2.57635 -12.8623,-2.48123 -12.20007,-9.8765c0.41248,-4.60588 1.53552,-9.17535 2.64288,-13.68672c3.52838,-14.37398 7.25763,-28.67885 6.54443,-43.71243c-0.53674,-11.3132 -8.01459,-19.42638 -19.26172,-19.1185c-6.37811,0.17459 -13.19586,0.98743 -18.90698,3.54312c-4.56354,2.0422 -9.77972,6.53604 -11.14459,11.02469c-3.10071,10.19734 -5.57782,21.01633 -0.22162,31.65176c1.15009,2.28361 1.41956,5.16353 1.52454,7.79152c0.29816,7.46037 0.55774,14.93922 0.36322,22.39856c-0.32745,12.55566 -1.68988,24.9118 -9.07263,35.73419c-3.55286,5.2081 -6.81226,10.6174 -10.39948,15.80069c-2.35419,3.40176 -4.86548,6.7377 -7.65552,9.78332c-2.99963,3.2745 -4.99988,6.90424 -3.73273,11.22351c1.80713,6.1597 3.41522,12.612 6.58307,18.08585c5.36896,9.27716 13.8927,15.50092 24.16626,18.51004c4.33582,1.26996 9.24329,0.65051 13.89404,0.77042c12.06738,0.3111 21.19299,-5.68777 29.12457,-13.95941c0.9021,-0.94076 1.51569,-3.18875 1.02704,-4.27393c-5.26898,-11.69864 -4.31915,-24.10443 -4.50476,-36.39178c-0.06036,-3.99677 1.24634,-7.29855 5.03735,-8.98657c3.76465,-1.67624 7.45093,-1.53244 11.12036,2.12042M70.24561,347.707c6.93314,-10.21329 10.96945,-21.4704 9.33392,-33.79086c-1.19281,-8.98557 -4.15124,-17.73007 -6.18503,-26.61356c-0.98584,-4.30637 -3.77408,-6.13306 -7.86835,-6.07181c-8.70041,0.13022 -15.9108,3.19476 -20.36441,11.13513c-1.86926,3.33273 -3.70975,6.6904 -5.36499,10.13211c-2.04846,4.25928 -5.72504,5.66785 -9.8941,5.11447c-4.53339,-0.60175 -7.71719,-3.46249 -7.82886,-8.31921c-0.12586,-5.47565 -0.02277,-10.99548 0.52923,-16.44052c1.68369,-16.60849 2.25208,-33.17264 -0.41397,-49.74091c-1.94336,-12.07715 -7.75214,-22.49069 -13.48666,-33.03616c-3.15988,-5.81085 -7.48367,-9.70569 -13.62146,-11.61105c-4.91647,-1.52628 -9.87915,-3.20685 -14.94534,-3.86722c-5.65631,-0.73727 -12.07501,-2.04926 -17.05225,-0.17087c-9.03369,3.40936 -17.19937,9.08374 -25.82396,13.62943c-3.3754,1.77905 -3.83496,3.9093 -2.44858,7.31043c3.68813,9.04788 4.58357,18.29846 1.60985,27.83108c-0.35913,1.15131 0.73791,3.30222 1.812,4.25473c3.4581,3.0668 7.95143,5.2139 10.73703,8.74725c10.48656,13.30173 14.09416,28.99237 12.67976,45.50772c-1.31125,15.31085 -5.1442,30.11777 -13.97632,43.17987c-0.5724,0.84653 -0.40082,3.22867 0.27135,3.70722c3.07285,2.18762 7.34126,-0.53836 8.07271,-4.23199c0.84409,-4.26242 2.34305,-8.43051 3.91876,-12.4997c0.97562,-2.51953 3.04089,-4.6387 3.89358,-7.18033c2.95926,-8.82047 5.4061,-17.81442 8.42883,-26.61151c2.33197,-6.78674 8.91327,-9.25281 14.31158,-5.75372c4.21323,2.73099 5.24686,6.65039 3.9097,11.3241c-3.56457,12.45892 -7.11578,24.92184 -10.76669,37.35547c-0.4082,1.39029 -1.17044,2.87103 -2.20609,3.84406c-2.52475,2.37219 -1.82721,4.70572 -0.44678,7.20258c1.92825,3.48776 3.71905,7.0593 5.81021,10.44586c1.08304,1.75385 2.42526,3.57562 4.09879,4.69812c8.09055,5.42664 16.2872,10.70062 24.56598,15.83569c1.43933,0.89276 3.62759,1.53485 5.17178,1.13666c6.75751,-1.74292 13.48511,-3.68188 20.07568,-5.97485c12.37946,-4.30707 23.15655,-11.39471 33.46307,-20.47769M439.89551,302.17136c-6.01776,22.96088 -13.60437,45.18176 -30.46533,63.12174c11.14771,7.15918 22.10913,11.38666 35.27728,8.49274c7.05115,-1.54968 13.34168,-3.62927 18.63208,-8.61359c2.45404,-2.31201 2.90009,-4.38763 2.09052,-7.87299c-4.56903,-19.67172 -12.71552,-38.64319 -11.70557,-59.45764c0.19763,-4.07382 -0.9472,-8.22601 -1.58807,-12.324c-0.80988,-5.17923 2.26032,-10.14142 7.12231,-11.68854c3.71704,-1.1828 5.93243,-0.01691 6.42084,3.81119c0.90411,7.0856 1.552,14.20392 2.45923,21.28909c0.84161,6.57342 1.08319,13.36673 3.00555,19.62827c3.7403,12.18338 8.30273,24.12824 12.92712,36.01532c1.00433,2.5816 3.28229,5.26715 5.69452,6.59869c10.86554,5.9975 22.65094,8.92859 35.0625,7.63666c6.034,-0.62805 11.33081,-3.37018 14.97412,-8.85437c6.76624,-10.18488 9.73468,-21.52063 10.08399,-33.47903c0.42645,-14.59906 0.31952,-29.21951 0.16962,-43.82791c-0.13489,-13.14786 -0.56732,-26.29428 -1.00635,-39.43674c-0.29425,-8.8082 -2.57623,-16.88525 -7.9444,-24.21552c-7.74853,-10.58075 -16.44098,-12.00095 -25.10291,-2.26532c-7.52923,8.46256 -11.974,18.83005 -12.10126,30.43115c-0.16589,15.12527 0.27606,30.25818 0.03412,45.38107c-0.08154,5.09476 -1.31268,10.19556 -2.27765,15.24402c-0.77283,4.04312 -3.64496,6.26022 -7.54108,7.03668c-2.7652,0.55109 -4.8833,0.02808 -5.19153,-3.53366c-0.45764,-5.28757 -1.10071,-10.56818 -1.90485,-15.81494c-2.28986,-14.94104 -3.87384,-30.05511 -7.27728,-44.74393c-4.1004,-17.69711 -20.96521,-29.33405 -37.64264,-27.76279c-4.05957,0.38251 -5.61804,1.73871 -4.99127,6.32816c1.68414,12.33334 3.32208,24.73123 3.82721,37.15033c0.47162,11.59705 -0.53546,23.25424 -1.04083,35.72586M589.0846,196.17902c-8.71277,2.75369 -17.43732,5.47128 -26.12488,8.30212c-1.22571,0.39941 -2.69592,1.10107 -3.29236,2.11166c-0.74188,1.2569 -1.487,3.54837 -0.86584,4.41659c8.3147,11.62265 9.28735,25.09949 9.83325,38.59528c0.52484,12.97794 0.53509,25.978 0.68781,38.96933c0.20697,17.608 0.52484,35.21921 0.31653,52.82333c-0.03656,3.08914 0.42267,4.61734 3.13049,5.62418c7.14557,2.65692 14.62695,4.69028 21.31537,8.22079c7.03235,3.7121 13.57873,2.43915 20.99908,0.94708c-2.0592,-5.85263 -4.1972,-11.25412 -5.85968,-16.79825c-3.19605,-10.65872 -6.37402,-21.33563 -9.06299,-32.12872c-1.51025,-6.06189 0.92267,-10.60141 5.53015,-12.52795c4.21161,-1.76099 8.87531,-0.74493 11.54736,3.19742c2.78125,4.10364 5.27917,8.45929 7.39233,12.9444c6.10223,12.95166 7.05188,26.90228 7.33612,40.92749c0.20892,10.31146 7.09021,15.52472 17.255,14.55444c6.58118,-0.6283 10.71234,-4.66077 15.80926,-7.5946c5.28003,-3.03925 8.61347,-7.20044 10.07361,-12.95102c2.9834,-11.74997 6.50952,-23.41019 8.63196,-35.31775c2.28027,-12.79367 -3.7337,-20.97299 -16.43762,-24.69757c-6.3551,-1.86322 -10.11157,-5.70554 -10.29724,-10.76627c-0.35364,-9.63565 -0.46625,-19.28296 -1.00049,-28.90756c-0.17047,-3.07077 -0.61285,-6.56604 -2.21051,-9.04095c-6.44812,-9.98871 -10.04907,-21.75259 -18.85284,-30.26593c-5.21503,-5.043 -9.89667,-10.9783 -18.11163,-10.97293c-8.9541,0.00586 -17.90808,0.14899 -27.74225,0.33539M35.8349,180.38104c0.79813,-0.08551 1.63013,-0.05389 2.3894,-0.27365c18.73724,-5.42194 37.57486,-10.53751 57.32425,-9.20987c5.13586,0.34528 9.14661,-1.30307 11.92676,-4.6817c3.73312,-4.53677 7.79865,-9.60791 9.18903,-15.09174c2.66779,-10.52182 4.95505,-21.5022 4.90491,-32.2807c-0.13092,-28.14908 -18.04385,-45.56509 -43.4209,-52.92586c-17.98966,-5.218 -37.25812,-3.98732 -55.91232,0.11931c-3.54416,0.78024 -4.51791,2.09024 -4.18347,6.09697c1.83157,21.94292 -4.45105,32.2282 -24.47379,38.34981c-3.92163,1.19894 -7.89725,2.22128 -11.10474,3.11743c3.08496,5.73733 6.34308,11.03897 8.87009,16.66876c4.08591,9.10294 3.35028,18.83325 2.93973,28.49606c-0.07404,1.74228 0.32925,4.35028 1.48508,5.14682c4.07114,2.80542 8.35968,5.52768 12.94415,7.30579c8.65012,3.35501 17.56311,6.03235 27.12183,9.16257M-56.41624,92.6729c4.10095,1.27992 8.2646,3.80019 12.29056,3.59669c10.22795,-0.51695 20.49544,-1.72131 30.55965,-3.63597c12.68131,-2.41257 15.03155,-8.56392 11.84555,-21.77049c-0.56171,-2.32831 -3.42691,-5.40953 -5.65118,-5.81319c-13.22928,-2.40073 -26.53214,-5.17848 -39.9064,-5.81753c-20.93094,-1.00015 -41.94485,-0.11128 -62.91104,-0.58267c-12.59055,-0.28311 -24.84135,0.98403 -37.0827,3.86328c-4.38326,1.03099 -6.46584,3.4428 -6.8743,7.13501c-0.75655,6.83859 0.63155,13.82387 5.89831,18.25998c8.49528,7.15546 18.34929,11.95366 30.06505,10.88881c5.03717,-0.45782 8.43259,1.61939 10.99126,6.07285c1.48599,2.5864 3.79651,5.36282 6.41113,6.496c5.11523,2.21695 10.89607,2.88245 16.04636,5.03836c6.21014,2.59952 12.35561,5.62366 17.94267,9.34451c3.58853,2.38989 5.64618,6.46509 4.06166,11.3746c-1.55644,4.82242 -5.17156,7.24463 -9.76798,6.97519c-4.99495,-0.29282 -10.18034,-1.17187 -14.80274,-3.00534c-5.65913,-2.24475 -10.80133,-5.78033 -16.20134,-8.69421c-5.73923,-3.09692 -17.59656,0.48322 -20.35721,6.09189c-2.35609,4.78671 -0.19981,19.69339 4.11926,22.97745c4.80841,3.65616 10.00977,7.50604 15.65991,9.1821c9.01604,2.67456 18.49525,4.02832 27.87276,5.1618c6.59906,0.79764 12.87061,-0.83438 19.2041,-3.75259c8.02728,-3.69867 16.79251,-5.93445 25.40488,-8.16177c3.86581,-0.99979 6.19928,-3.15097 6.55762,-6.48819c1.55984,-14.5271 1.07272,-25.61783 -14.93658,-34.62698c-7.85872,-4.42249 -15.26433,-9.14725 -24.33353,-10.6745c-2.33948,-0.39392 -4.72113,-1.74899 -6.63364,-3.23962c-5.70085,-4.44339 -4.33611,-13.46902 2.55229,-15.59857c3.47983,-1.07579 7.43086,-0.6274 11.97562,-0.59688M117.74084,361.97589c3.33163,0.03882 6.66599,0.18176 9.99442,0.09601c8.21704,-0.21198 13.35815,-4.37488 15.27902,-12.21616c0.59247,-2.41852 1.1182,-4.85684 1.80988,-7.24692c6.00192,-20.73947 1.43826,-39.02286 -12.64487,-55.1723c-2.52295,-2.8931 -5.09473,-4.11658 -9.14127,-3.04727c-5.5694,1.47168 -10.40949,-0.90454 -12.20084,-5.10822c-1.81305,-4.25458 -0.27152,-8.43176 4.45752,-12.0567c0.39496,-0.30277 0.81622,-0.57199 1.23166,-0.84723c3.18246,-2.10877 6.59283,-3.94382 9.50638,-6.37457c7.80719,-6.51346 11.79782,-14.61322 9.81125,-25.10452c-1.17136,-6.18597 -1.64465,-12.51236 -2.98212,-18.65582c-0.90674,-4.16492 -2.15933,-8.4859 -4.31872,-12.10343c-6.5058,-10.8988 -16.67551,-15.52826 -29.16324,-16.21771c-15.62823,-0.86276 -30.17728,4.2164 -44.96597,7.77606c-6.16391,1.48361 -11.92581,4.69421 -17.80856,7.26157c-2.47662,1.08084 -3.10519,2.68014 -1.90149,5.57864c5.94986,14.32715 8.60053,29.32483 8.31696,44.84555c-0.08395,4.59659 -0.01294,9.19608 -0.01294,12.90799c7.86893,-1.42517 15.4502,-3.80444 23.07083,-3.93802c10.90085,-0.19107 20.41309,4.4545 23.91754,15.41739c3.88092,12.14041 6.68405,24.7164 8.82443,37.29532c1.9321,11.35504 -2.37927,21.96554 -6.6832,32.3273c-0.84564,2.03589 -2.48773,3.91278 0.54898,5.96823c7.3428,4.97021 15.36844,7.73975 25.05435,8.61481M172.00809,113.43344c-4.15784,-2.38864 -1.62,-5.68918 -0.73337,-8.35495c0.47803,-1.43729 2.6788,-3.16751 4.19229,-3.25775c12.31232,-0.73441 23.02228,-6.17523 33.7981,-11.27296c12.11569,-5.73158 19.71103,-19.3414 18.88773,-32.81158c-0.4447,-7.27457 -4.19421,-12.00407 -11.46027,-12.8582c-4.86145,-0.57146 -9.95429,-0.22017 -14.82401,0.51269c-17.44586,2.6254 -32.48142,11.22389 -47.52213,19.75497c-6.02887,3.41956 -12.29974,6.43434 -18.18518,10.07794c-4.66565,2.88841 -5.41458,6.8208 -3.07712,11.4557c5.19461,10.3004 7.64938,21.31072 7.67105,32.76299c0.01428,7.53461 -0.77719,15.07071 -1.21179,22.67502c1.27844,-0.39267 2.58057,-0.67844 3.79166,-1.18274c9.32697,-3.88382 18.59732,-8.10825 28.9877,-3.7392c0.14221,0.05981 0.34958,-0.03775 0.4939,0.01987c2.00842,0.80145 4.01111,1.61725 6.0152,2.42953c-0.96017,1.91358 -1.81168,3.89407 -2.93075,5.70975c-0.48926,0.79388 -1.56509,1.2063 -2.30771,1.86707c-7.69034,6.84308 -17.82965,8.55142 -26.70785,12.88626c-6.47348,3.16068 -12.81339,6.90289 -18.45532,11.34747c-3.60156,2.83719 -6.87506,6.36819 -0.09546,11.34924c5.0947,3.7431 9.16605,6.03793 15.46579,4.93097c24.76602,-4.35172 46.3324,-14.97635 64.20093,-32.64856c6.83386,-6.75879 13.29321,-13.99835 19.15027,-21.61337c5.61084,-7.29489 4.8277,-13.20657 -1.0282,-18.60608c-4.27814,-3.9447 -12.30615,-4.89477 -18.30521,-2.03415c-4.6619,2.22299 -9.16141,4.81317 -13.91782,6.79733c-1.69116,0.70548 -4.09302,0.60568 -5.88187,0.00876c-5.17706,-1.72757 -10.20752,-3.8945 -16.01056,-6.20602M304.08453,115.21582c-7.74719,0.59595 -15.48901,1.27884 -23.24329,1.76154c-6.74286,0.41974 -11.23157,-2.67664 -11.93695,-7.9541c-0.7674,-5.74146 3.09143,-10.73053 9.53125,-11.91116c3.75043,-0.68762 7.59692,-0.83243 11.37598,-1.38654c10.52539,-1.54329 19.77539,-5.75713 26.75482,-13.95309c4.76898,-5.60019 3.9704,-16.09476 -1.87622,-19.08833c-5.03699,-2.57902 -10.8822,-4.66174 -16.45728,-4.89693c-14.53064,-0.61296 -28.729,2.17339 -42.77612,6.04303c-5.82904,1.60577 -9.9956,3.63524 -10.2904,10.28789c-0.04901,1.1046 -0.65717,2.22054 -1.15015,3.2635c-3.09326,6.54421 -6.22711,13.06924 -8.85364,18.56683c4.30102,5.72458 9.13306,10.52353 11.99896,16.29819c6.68072,13.46133 0.94458,25.1745 -7.05566,36.01883c-3.90784,5.29706 -8.34235,10.20569 -12.73535,15.52866c1.35394,1.27304 2.46509,2.50327 3.75537,3.50208c12.11621,9.37909 25.46015,16.5372 40.44244,19.78201c9.86365,2.13623 18.89117,2.51801 27.49664,-6.75851c7.04218,-7.59125 8.50214,-14.63739 7.27264,-23.65811c-0.53949,-3.95755 -2.07098,-5.86041 -6.64465,-4.89673c-6.39349,1.34714 -12.8905,1.58411 -18.92249,-1.89688c-6.19257,-3.57358 -7.05676,-11.36063 -1.46728,-15.75494c6.9137,-5.43539 14.906,-4.17499 22.901,-3.46216c3.21881,0.28699 6.74158,-0.46704 9.82056,-1.5871c3.74378,-1.36185 4.38324,-5.32605 3.50708,-8.41223c-0.5398,-1.90118 -3.52124,-3.32587 -5.66797,-4.47641c-1.38251,-0.74094 -3.23938,-0.59653 -5.7793,-0.95932M410.75287,79.03963c-0.58545,-4.97942 -1.90021,-9.91038 -6.88379,-11.93469c-5.16089,-2.09639 -10.70319,-4.2328 -16.15418,-4.44884c-15.12427,-0.59941 -29.04297,4.66147 -42.58026,10.8309c-1.40601,0.64078 -2.63062,2.05861 -3.51831,3.39549c-5.42749,8.17343 -10.7334,16.42754 -16.53949,25.36211c-0.01782,-0.00992 0.71405,0.37616 1.42535,0.79703c12.08423,7.15018 10.31348,32.68164 -0.58691,39.58267c-2.70294,1.71124 -2.75281,3.56104 -1.98956,6.60324c2.74664,10.94824 4.32758,22.24094 -1.85486,32.44986c-2.94824,4.86841 -3.41516,8.06644 1.05456,11.25803c7.37677,-2.7778 14.59973,-5.59348 21.89282,-8.21402c5.9585,-2.14099 7.02234,-3.51239 5.87103,-9.77097c-0.29932,-1.62689 -1.60193,-3.17908 -2.73114,-4.52423c-4.78546,-5.70032 -3.5708,-12.50259 3.09796,-15.73971c1.8977,-0.92117 4.11279,-1.37512 6.23163,-1.62448c16.57739,-1.95074 29.55109,-9.57773 38.38922,-23.93649c2.43158,-3.95044 5.22888,-7.68143 7.5578,-11.6878c1.81323,-3.1192 4.03003,-6.37848 4.54596,-9.80463c1.3808,-9.16925 1.94342,-18.46176 2.77216,-28.59346z" fill="#010203"/><path d="M-128.63181,244.43503c-6.05305,1.95001 -11.79015,3.63251 -17.45439,5.5322c-5.86404,1.96677 -9.12369,6.23279 -8.89153,11.24066c0.22021,4.74991 4.1665,9.65408 9.86726,10.41037c6.02477,0.79922 12.21799,0.42813 18.33661,0.39261c6.32385,-0.03671 12.74698,0.37082 18.94812,-0.58023c11.88527,-1.82279 21.96413,-7.82175 30.64577,-15.94003c2.49786,-2.33579 4.60982,-2.86612 6.78595,-0.7208c3.10562,3.06164 6.64577,6.18118 8.40729,10.00909c4.37114,9.49887 5.85133,19.53394 4.01349,30.13818c-1.95435,11.27634 -4.66186,22.18845 -12.14426,31.0834c-3.24962,3.86313 -7.25644,7.72317 -11.74551,9.79208c-13.99426,6.44971 -28.03191,13.20245 -42.71507,17.65195c-15.59578,4.72601 -32.29387,4.61096 -47.87339,-0.03601c-23.69001,-7.06616 -41.08558,-22.15915 -49.30774,-46.20218c-3.38448,-9.89679 -6.49049,-19.94983 -8.70589,-30.15268c-0.7875,-3.62674 0.63604,-8.32071 2.4372,-11.81198c5.33322,-10.33743 11.06357,-20.5032 17.25393,-30.34924c2.56647,-4.08209 6.65523,-7.22159 10.12238,-10.7197c6.33033,-6.38681 12.68807,-12.7471 19.09733,-19.05444c1.16587,-1.14737 2.4954,-2.34348 3.98107,-2.9173c13.57657,-5.24445 27.07344,-10.74454 40.85603,-15.39157c12.47989,-4.20776 25.1243,-1.57877 37.33037,1.76975c3.77296,1.035 7.41396,4.43121 9.94069,7.66437c3.33618,4.26889 5.71266,9.34402 8.14543,14.24927c3.49745,7.05197 0.34752,13.64594 -2.08438,20.16574c-0.27477,0.73663 -1.84435,1.11847 -2.88435,1.42206c-13.99745,4.08597 -28.00751,8.12881 -42.36241,12.35443M-110.70412,220.29248c1.19241,-1.8653 3.5652,-3.87173 3.36212,-5.57016c-0.68692,-5.74493 -9.58084,-13.7157 -15.2066,-14.08768c-1.34087,-0.08865 -3.27985,0.83746 -4.00063,1.923c-0.58479,0.88074 -0.19231,3.62473 0.51431,3.95819c6.11938,2.88779 9.9951,7.81451 13.246,13.4487c0.16791,0.29098 0.91699,0.24664 2.08479,0.32794M-78.12233,276.60605c0.55377,2.23886 0.7272,4.68271 1.78705,6.64877c0.78438,1.45505 2.84967,3.2879 4.11166,3.12707c1.35374,-0.17255 3.30006,-2.40369 3.43037,-3.87436c0.18907,-2.13416 -0.72417,-4.53229 -1.69241,-6.56808c-2.03361,-4.27588 -4.51622,-4.2468 -7.63667,0.6666z" fill="#01579a"/><path d="M404.18213,207.77209c13.36133,7.66238 14.08459,21.20264 15.60413,33.61661c1.77252,14.48099 1.83942,29.19012 2.26666,43.81134c0.49567,16.96368 -5.91711,32.19043 -12.9823,47.0954c-2.70844,5.71387 -5.55231,11.24823 -9.64453,16.48557c-6.19086,7.92334 -13.71985,11.87683 -22.72516,14.95483c-15.77582,5.39203 -31.84521,5.36725 -47.60358,1.86468c-7.45068,-1.65607 -13.79486,-7.80457 -21.02576,-11.06226c-8.47742,-3.81921 -12.7132,-10.6568 -15.60632,-19.00977c12.08758,-10.88297 17.25464,-24.66135 16.6748,-41.18549c-0.5412,-15.41992 -2.83753,-30.45435 -7.31995,-45.15057c-2.4704,-8.09964 -0.87439,-14.18659 5.49182,-20.32755c12.61261,-12.16638 26.69354,-21.80768 43.66968,-25.78906c11.20483,-2.62787 23.05084,-3.83572 34.53296,-3.44162c6.21234,0.21323 12.26355,5.12143 18.66754,8.13788M368.4613,294.74252c2.72345,-17.36887 -3.05084,-32.52621 -12.87433,-46.27463c-1.64899,-2.30786 -6.28204,-3.34732 -9.56061,-3.39795c-3.69763,-0.05713 -6.58948,2.93893 -6.83014,6.77219c-0.17566,2.79898 0.39972,6.10898 1.83282,8.46622c6.85956,11.28369 11.69794,22.79504 7.16852,36.28424c-0.35614,1.06064 -0.23889,2.31702 -0.17902,3.47403c0.25018,4.83096 3.76575,8.66873 8.28308,9.12317c4.94763,0.49771 9.21863,-2.45303 10.47595,-7.30533c0.54071,-2.08676 0.95734,-4.20572 1.68372,-7.14194M380.46588,215.05121c12.20734,0.58402 20.67828,5.59476 22.25342,18.77933c0.01959,0.16363 0.02765,0.40832 0.12946,0.47058c1.78857,1.09348 3.85321,3.28073 5.31885,2.93631c1.56616,-0.36804 3.86414,-3.35764 3.60809,-4.80859c-1.59058,-9.01431 -6.42908,-20.88489 -18.21063,-23.16836c-7.23639,-1.40256 -14.75684,-1.4996 -22.16345,-1.71802c-1.36236,-0.04019 -2.79047,2.14865 -4.18823,3.30862c1.32782,1.453 2.43817,3.76031 4.03253,4.16608c2.62994,0.66922 5.57251,0.10971 9.21997,0.03406z" fill="#01579a"/><path d="M248.05151,209.85831c21.64673,6.12375 30.86493,22.12735 35.06165,42.17297c2.27954,10.88815 4.46594,21.80273 6.35956,32.76324c3.37891,19.55728 -3.08929,34.60529 -20.09235,45.56265c-21.19232,13.6571 -44.1391,21.62042 -69.24142,22.27728c-8.47144,0.22165 -17.04111,-2.28207 -25.4942,-3.91193c-0.88773,-0.17114 -1.89999,-2.8974 -1.82434,-4.38583c1.2146,-23.89862 -4.35107,-46.90021 -8.99206,-70.03522c-3.72022,-18.54511 -7.26782,-37.12476 -10.9487,-55.67783c-0.98318,-4.95557 1.04578,-6.85898 5.89966,-8.08487c17.67282,-4.46338 35.71686,-7.00659 53.75799,-6.99207c11.71387,0.00943 23.4245,3.99753 35.51422,6.31159M201.6655,242.02316c-4.68872,5.07989 -4.52976,8.44675 -1.36206,14.80811c2.84091,5.70517 5.23206,11.8374 6.54276,18.051c1.70731,8.09381 1.96033,16.48297 3.20267,24.69c0.95813,6.32968 6.18008,9.61655 11.92685,8.02438c5.92004,-1.64017 9.8548,-8.57422 8.34473,-13.9274c-1.41773,-5.02554 -2.5,-10.17255 -3.33496,-15.33002c-1.75726,-10.85498 -3.60675,-21.59363 -9.7984,-31.09003c-4.31213,-6.61377 -7.75354,-8.14743 -15.52158,-5.22604M261.80212,236.94949c-0.16632,-1.41711 0.10315,-3.09528 -0.56555,-4.2114c-7.57617,-12.64584 -19.28772,-18.11005 -33.57013,-18.39291c-1.68384,-0.03336 -3.42102,2.62875 -5.13342,4.04138c1.69995,1.20755 3.28119,3.21707 5.11963,3.48944c10.15692,1.50452 19.23993,4.4577 24.89941,14.02002c2.05249,3.46802 5.08344,5.45929 9.25006,1.05347z" fill="#01579a"/><path d="M484.68884,139.21454c-3.39673,-3.40195 -7.08301,-3.54575 -10.84766,-1.86951c-3.79102,1.68802 -5.09772,4.98981 -5.03735,8.98657c0.18561,12.28735 -0.76422,24.69315 4.50476,36.39178c0.48865,1.08517 -0.12494,3.33316 -1.02704,4.27393c-7.93158,8.27164 -17.05719,14.27051 -29.12457,13.95941c-4.65076,-0.1199 -9.55823,0.49954 -13.89404,-0.77042c-10.27356,-3.00912 -18.7973,-9.23288 -24.16626,-18.51004c-3.16785,-5.47385 -4.77594,-11.92615 -6.58307,-18.08585c-1.26715,-4.31928 0.73309,-7.94901 3.73273,-11.22351c2.79004,-3.04562 5.30133,-6.38156 7.65552,-9.78332c3.58722,-5.18329 6.84662,-10.59259 10.39948,-15.80069c7.38275,-10.82239 8.74518,-23.17853 9.07263,-35.73419c0.19452,-7.45934 -0.06506,-14.93819 -0.36322,-22.39856c-0.10498,-2.62799 -0.37445,-5.5079 -1.52454,-7.79152c-5.3562,-10.63544 -2.87909,-21.45442 0.22162,-31.65176c1.36487,-4.48865 6.58105,-8.98248 11.14459,-11.02469c5.71112,-2.5557 12.52887,-3.36853 18.90698,-3.54312c11.24713,-0.30788 18.72498,7.8053 19.26172,19.1185c0.7132,15.03358 -3.01605,29.33846 -6.54443,43.71243c-1.10736,4.51137 -2.23041,9.08084 -2.64288,13.68672c-0.66223,7.39526 5.37012,12.45285 12.20007,9.8765c14.46106,-5.45496 26.39838,-1.62994 37.38245,8.33624c17.22485,15.6286 26.73431,34.76413 27.3465,58.11887c0.07379,2.81219 -0.49237,5.6351 -0.60809,8.45938c-0.44263,10.80487 -4.59399,14.82083 -15.61621,15.03091c-7.06207,0.13464 -14.24322,1.11853 -21.13904,0.11993c-3.90973,-0.56619 -7.40546,-4.28863 -10.94342,-6.79334c-0.51367,-0.36359 -0.35126,-1.87753 -0.27978,-2.84274c0.9483,-12.80048 -2.84876,-24.67453 -7.24738,-36.38757c-0.77887,-2.07394 -2.61792,-3.74976 -4.24005,-5.86035M508.72638,109.71805c-4.1181,-1.5376 -8.1499,-3.46454 -12.40002,-4.40631c-1.53326,-0.33972 -4.66089,1.29047 -5.18597,2.7135c-1.0932,2.96298 1.3172,4.53 4.12707,4.78516c4.98157,0.4523 8.64874,3.02075 11.70819,6.7366c1.6842,2.04556 3.4386,4.03488 5.0788,6.11466c1.86224,2.36115 4.16754,3.81543 6.78119,1.67047c2.49158,-2.04474 2.01172,-4.71048 -0.06268,-6.99545c-3.11786,-3.43433 -6.29456,-6.81519 -10.04657,-10.61862M468.46063,33.33318c-1.84656,-7.29275 -7.71503,-9.09607 -14.01074,-9.61302c-1.85693,-0.15245 -5.00775,1.42891 -5.60284,2.97241c-1.09924,2.85126 1.33142,4.42055 4.16119,4.69801c4.58087,0.44914 7.82733,1.97082 8.07422,7.42432c0.05628,1.2428 2.91132,3.58885 3.76617,3.30238c1.63995,-0.54954 3.06982,-2.45506 3.99609,-4.1256c0.53528,-0.96538 -0.08301,-2.57036 -0.3841,-4.65851z" fill="#01aefd"/><path d="M70.04303,348.0047c-10.10394,8.78528 -20.88104,15.87292 -33.2605,20.17999c-6.59058,2.29297 -13.31818,4.23193 -20.07568,5.97485c-1.54419,0.39819 -3.73245,-0.2439 -5.17178,-1.13666c-8.27878,-5.13507 -16.47543,-10.40906 -24.56598,-15.83569c-1.67352,-1.1225 -3.01575,-2.94427 -4.09879,-4.69812c-2.09116,-3.38657 -3.88196,-6.9581 -5.81021,-10.44586c-1.38043,-2.49686 -2.07797,-4.83038 0.44678,-7.20258c1.03564,-0.97302 1.79788,-2.45377 2.20609,-3.84406c3.65091,-12.43362 7.20212,-24.89655 10.76669,-37.35547c1.33716,-4.67371 0.30353,-8.59311 -3.9097,-11.3241c-5.39832,-3.49909 -11.97961,-1.03302 -14.31158,5.75372c-3.02274,8.79709 -5.46957,17.79105 -8.42883,26.61151c-0.85269,2.54163 -2.91797,4.6608 -3.89358,7.18033c-1.57572,4.06918 -3.07468,8.23728 -3.91876,12.4997c-0.73144,3.69363 -4.99986,6.41962 -8.07271,4.23199c-0.67216,-0.47855 -0.84375,-2.86069 -0.27135,-3.70722c8.83212,-13.0621 12.66507,-27.86902 13.97632,-43.17987c1.4144,-16.51535 -2.19321,-32.20599 -12.67976,-45.50772c-2.7856,-3.53336 -7.27893,-5.68045 -10.73703,-8.74725c-1.07408,-0.95251 -2.17113,-3.10342 -1.812,-4.25473c2.97372,-9.53262 2.07828,-18.7832 -1.60985,-27.83108c-1.38638,-3.40112 -0.92682,-5.53137 2.44858,-7.31043c8.62459,-4.54568 16.79027,-10.22006 25.82396,-13.62943c4.97723,-1.87839 11.39594,-0.56641 17.05225,0.17087c5.06619,0.66037 10.02887,2.34094 14.94534,3.86722c6.13779,1.90537 10.46158,5.8002 13.62146,11.61105c5.73453,10.54547 11.5433,20.95901 13.48666,33.03616c2.66605,16.56827 2.09766,33.13242 0.41397,49.74091c-0.552,5.44504 -0.65509,10.96487 -0.52923,16.44052c0.11166,4.85672 3.29547,7.71747 7.82886,8.31921c4.16907,0.55338 7.84564,-0.85519 9.8941,-5.11447c1.65524,-3.44171 3.49573,-6.79938 5.36499,-10.13211c4.45361,-7.94037 11.664,-11.00491 20.36441,-11.13513c4.09427,-0.06125 6.88251,1.76544 7.86835,6.07181c2.03378,8.88348 4.99222,17.62799 6.18503,26.61356c1.63553,12.32047 -2.40079,23.57758 -9.5365,34.08856M-32.70215,237.39798c0.28381,5.58893 0.81393,11.1792 0.78253,16.76636c-0.0318,5.66574 3.05429,10.16296 8.11713,10.87634c5.20862,0.73392 9.8392,-2.39963 10.88574,-7.8884c0.64658,-3.39136 1.11865,-7.00903 0.65158,-10.38431c-1.55533,-11.23926 -0.16949,-23.62115 -12.17639,-31.00833c-3.13257,-1.92728 -5.12552,-2.21234 -7.89337,-0.00366c-3.62091,2.8895 -4.36703,6.4527 -3.19925,10.69043c0.92651,3.3623 1.82455,6.73242 2.83203,10.95157M-22.81513,196.1499c-3.57352,3.09473 -3.61627,6.28381 0.40424,7.23062c9.57867,2.25568 14.41028,8.17188 15.62244,17.59705c0.08188,0.63657 0.30752,1.5101 0.76486,1.79632c1.53659,0.96164 3.65738,2.74613 4.72089,2.28653c1.51138,-0.65314 3.46539,-3.26148 3.1864,-4.61227c-2.48148,-12.01425 -7.14114,-22.65741 -24.69882,-24.29825M61.47635,300.24411c2.94601,0.00183 5.35767,-1.50308 4.4241,-4.33157c-0.63196,-1.91461 -3.54507,-4.32776 -5.36911,-4.27191c-2.14682,0.06574 -5.60733,2.24933 -6.01337,4.06897c-0.68588,3.07397 2.32217,4.16821 5.30862,4.00998c0.30927,-0.01639 0.62927,0.17059 1.64975,0.52454z" fill="#015699"/><path d="M439.97009,301.75092c0.43079,-12.05118 1.43787,-23.70837 0.96625,-35.30542c-0.50513,-12.4191 -2.14307,-24.81699 -3.82721,-37.15033c-0.62677,-4.58945 0.9317,-5.94565 4.99127,-6.32816c16.67743,-1.57126 33.54224,10.06567 37.64264,27.76279c3.40344,14.68881 4.98743,29.80289 7.27728,44.74393c0.80414,5.24677 1.4472,10.52738 1.90485,15.81494c0.30823,3.56174 2.42633,4.08475 5.19153,3.53366c3.89612,-0.77646 6.76825,-2.99356 7.54108,-7.03668c0.96497,-5.04846 2.19611,-10.14926 2.27765,-15.24402c0.24194,-15.12289 -0.20001,-30.2558 -0.03412,-45.38107c0.12726,-11.60111 4.57202,-21.9686 12.10126,-30.43115c8.66193,-9.73563 17.35437,-8.31543 25.10291,2.26532c5.36816,7.33026 7.65015,15.40732 7.9444,24.21552c0.43903,13.14246 0.87146,26.28888 1.00635,39.43674c0.1499,14.6084 0.25684,29.22885 -0.16962,43.82791c-0.34931,11.95841 -3.31775,23.29416 -10.08399,33.47903c-3.64331,5.48419 -8.94012,8.22632 -14.97412,8.85437c-12.41156,1.29193 -24.19696,-1.63916 -35.0625,-7.63666c-2.41223,-1.33154 -4.69019,-4.01709 -5.69452,-6.59869c-4.62439,-11.88709 -9.18683,-23.83194 -12.92712,-36.01532c-1.92236,-6.26153 -2.16394,-13.05484 -3.00555,-19.62826c-0.90723,-7.08517 -1.55512,-14.20349 -2.45923,-21.28909c-0.4884,-3.8281 -2.7038,-4.99399 -6.42084,-3.81119c-4.862,1.54712 -7.93219,6.50931 -7.12231,11.68854c0.64087,4.09799 1.78571,8.25018 1.58807,12.32401c-1.00995,20.81445 7.13654,39.78592 11.70557,59.45764c0.80957,3.48535 0.36352,5.56097 -2.09052,7.87299c-5.29041,4.98431 -11.58093,7.0639 -18.63208,8.61359c-13.16815,2.89392 -24.12958,-1.33356 -35.27728,-8.49274c16.86096,-17.93997 24.44757,-40.16086 30.53992,-63.54217M467.88916,246.71634c-2.06732,-5.22314 -5.4798,-9.22598 -11.0647,-10.53744c-1.46729,-0.34451 -3.70978,0.79324 -4.91162,1.95725c-0.54626,0.52902 0.17676,3.7533 1.00507,4.09268c5.42975,2.22433 7.12006,6.89236 9.00122,11.76617c0.47192,1.22269 3.73016,2.68002 4.54974,2.16968c1.44415,-0.89926 2.33282,-3.14621 2.79486,-4.99374c0.2699,-1.07935 -0.73834,-2.4783 -1.37457,-4.45459M539.20435,238.96558c-0.89972,-8.12076 -5.7652,-13.5054 -12.52405,-17.24625c-1.12451,-0.62244 -4.23743,0.35748 -4.91943,1.49973c-0.64917,1.08728 0.11115,4.14145 1.24347,4.96149c3.78528,2.7413 6.34674,6.00256 7.94074,10.4484c1.60437,4.47482 4.56989,4.65701 8.25928,0.33664z" fill="#015699"/><path d="M589.52466,196.12744c9.3941,-0.13483 18.34808,-0.27795 27.30219,-0.28381c8.21497,-0.00537 12.89661,5.92993 18.11163,10.97293c8.80377,8.51334 12.40472,20.27722 18.85284,30.26593c1.59766,2.47492 2.04004,5.97018 2.21051,9.04095c0.53424,9.6246 0.64685,19.27191 1.00049,28.90756c0.18567,5.06073 3.94214,8.90305 10.29724,10.76627c12.70392,3.72458 18.71789,11.9039 16.43762,24.69757c-2.12244,11.90756 -5.64856,23.56778 -8.63196,35.31775c-1.46014,5.75058 -4.79358,9.91177 -10.07361,12.95102c-5.09692,2.93384 -9.22809,6.96631 -15.80926,7.5946c-10.1648,0.97028 -17.04608,-4.24298 -17.255,-14.55444c-0.28424,-14.02521 -1.23389,-27.97583 -7.33612,-40.92749c-2.11316,-4.48511 -4.61108,-8.84076 -7.39233,-12.9444c-2.67206,-3.94235 -7.33575,-4.95841 -11.54736,-3.19742c-4.60748,1.92654 -7.0404,6.46606 -5.53015,12.52795c2.68896,10.79309 5.86694,21.47 9.06299,32.12872c1.66248,5.54413 3.80048,10.94562 5.85968,16.79825c-7.42035,1.49207 -13.96673,2.76501 -20.99908,-0.94708c-6.68842,-3.53052 -14.1698,-5.56387 -21.31537,-8.22079c-2.70782,-1.00684 -3.16705,-2.53503 -3.13049,-5.62418c0.20831,-17.60413 -0.10956,-35.21533 -0.31653,-52.82333c-0.15271,-12.99133 -0.16296,-25.99139 -0.68781,-38.96933c-0.5459,-13.49579 -1.51855,-26.97262 -9.83325,-38.59528c-0.62116,-0.86822 0.12396,-3.1597 0.86584,-4.41659c0.59644,-1.01059 2.06665,-1.71225 3.29236,-2.11166c8.68756,-2.83084 17.41211,-5.54843 26.56494,-8.3537M616.01312,255.22971c4.93079,-13.63327 0.54749,-23.23987 -12.56079,-27.52853c-5.10254,-1.66943 -10.17584,0.01892 -12.11145,4.03064c-2.30359,4.7742 -0.73413,9.85059 3.96362,12.92587c1.04736,0.68561 2.0293,1.4711 3.38989,2.46542c-1.24518,1.47665 -2.17358,2.58795 -3.11304,3.68982c-3.21082,3.7659 -3.53851,8.83557 -0.79102,12.30972c2.76679,3.49854 7.49237,4.85519 11.55756,2.10233c3.57336,-2.4198 6.25812,-6.15173 9.66522,-9.99527M620.80872,204.81863c-3.52319,1.26547 -3.40857,3.73059 -1.85876,6.35214c3.5885,6.07016 7.15662,12.16739 11.12323,17.98767c0.92493,1.35712 3.40558,1.65402 5.17041,2.43872c0.78479,-1.93918 2.5614,-4.12787 2.14923,-5.76584c-0.87427,-3.47479 -2.34064,-7.10419 -4.56427,-9.86465c-3.32715,-4.13022 -7.5155,-7.56665 -12.01984,-11.14804M668.54584,293.13541c-1.70239,0.43356 -3.40472,0.86713 -5.10712,1.30066c0.50659,1.8772 0.8418,3.82559 1.5813,5.60605c0.47797,1.15085 1.37457,2.31067 2.39691,3.00561c1.23956,0.84265 3.19586,2.01682 4.14282,1.569c1.31439,-0.62164 3.0885,-3.13571 2.71753,-3.93186c-1.22656,-2.63251 -3.32782,-4.85742 -5.73145,-7.54947z" fill="#01569a"/><path d="M35.4574,180.29544c-9.18121,-3.04462 -18.09421,-5.72195 -26.74432,-9.07697c-4.58447,-1.77811 -8.87302,-4.50037 -12.94415,-7.30579c-1.15582,-0.79654 -1.55911,-3.40454 -1.48508,-5.14682c0.41055,-9.66281 1.14618,-19.39313 -2.93973,-28.49606c-2.52701,-5.62979 -5.78513,-10.93143 -8.87009,-16.66876c3.20749,-0.89615 7.1831,-1.91849 11.10474,-3.11743c20.02274,-6.12161 26.30536,-16.40689 24.47379,-38.34981c-0.33444,-4.00673 0.63931,-5.31673 4.18347,-6.09697c18.6542,-4.10663 37.92267,-5.33731 55.91232,-0.11931c25.37705,7.36076 43.28998,24.77678 43.4209,52.92586c0.05014,10.7785 -2.23712,21.75888 -4.90491,32.2807c-1.39038,5.48383 -5.4559,10.55496 -9.18903,15.09174c-2.78015,3.37863 -6.79089,5.02698 -11.92676,4.6817c-19.74939,-1.32764 -38.58701,3.78793 -57.32425,9.20987c-0.75928,0.21976 -1.59128,0.18814 -2.76691,0.18805M44.58496,113.01257c3.41788,0.90851 6.83575,1.81702 10.48315,2.7865c-4.70648,11.25131 -12.94186,18.11163 -21.90536,24.32114c-5.31216,3.68002 -6.91772,8.52295 -4.41879,13.12271c2.56933,4.72946 7.52139,6.53317 13.35016,3.81744c3.63117,-1.69186 6.59747,-4.80631 9.87164,-7.26974c9.52866,-7.16922 16.48621,-16.32739 21.05188,-27.3114c3.0044,-7.22787 1.66409,-13.56787 -3.8602,-19.13999c-5.71133,-5.7608 -13.08221,-7.58537 -20.7001,-8.91127c-6.78244,-1.18046 -11.3743,1.08493 -12.66141,6.35997c-1.44275,5.91269 1.19934,9.87979 8.78903,12.22464M56.42172,78.45432c3.1012,0.40515 6.33411,0.38371 9.27954,1.29324c9.90631,3.05904 19.36936,7.03371 26.66165,14.87118c2.28845,2.4595 5.08438,3.65134 7.80087,0.85506c2.92419,-3.01009 0.71838,-5.28192 -1.54575,-7.55893c-8.24957,-8.2964 -18.57498,-12.71178 -29.57336,-15.71188c-3.42905,-0.93536 -7.19629,-1.38664 -10.71338,-1.05335c-4.47369,0.42397 -5.14407,2.79027 -1.90958,7.30467z" fill="#01aefc"/><path d="M-56.81964,92.53726c-4.14136,0.10512 -8.09239,-0.34328 -11.57222,0.73251c-6.8884,2.12955 -8.25314,11.15518 -2.55229,15.59857c1.91251,1.49063 4.29416,2.8457 6.63364,3.23962c9.0692,1.52725 16.47481,6.25201 24.33353,10.6745c16.00931,9.00916 16.49643,20.09988 14.93658,34.62698c-0.35834,3.33722 -2.6918,5.4884 -6.55762,6.48819c-8.61237,2.22733 -17.37759,4.4631 -25.40488,8.16177c-6.3335,2.91821 -12.60504,4.55023 -19.2041,3.75259c-9.3775,-1.13348 -18.85672,-2.48724 -27.87276,-5.1618c-5.65015,-1.67606 -10.8515,-5.52594 -15.65991,-9.1821c-4.31908,-3.28406 -6.47536,-18.19074 -4.11926,-22.97745c2.76065,-5.60867 14.61798,-9.18881 20.35721,-6.09189c5.40001,2.91388 10.54221,6.44946 16.20134,8.69421c4.62239,1.83347 9.80779,2.71252 14.80274,3.00534c4.59642,0.26944 8.21153,-2.15277 9.76798,-6.97519c1.58452,-4.90951 -0.47313,-8.98471 -4.06166,-11.3746c-5.58707,-3.72086 -11.73253,-6.745 -17.94267,-9.34451c-5.15028,-2.15591 -10.93112,-2.82141 -16.04636,-5.03836c-2.61462,-1.13318 -4.92514,-3.90961 -6.41113,-6.496c-2.55867,-4.45346 -5.95409,-6.53067 -10.99126,-6.07285c-11.71576,1.06485 -21.56976,-3.73335 -30.06505,-10.88881c-5.26677,-4.43611 -6.65486,-11.42139 -5.89831,-18.25998c0.40846,-3.69221 2.49104,-6.10402 6.8743,-7.13501c12.24135,-2.87926 24.49216,-4.14639 37.0827,-3.86328c20.96619,0.47139 41.9801,-0.41748 62.91104,0.58267c13.37427,0.63905 26.67712,3.41681 39.9064,5.81753c2.22427,0.40366 5.08948,3.48488 5.65118,5.81319c3.186,13.20657 0.83576,19.35793 -11.84555,21.77049c-10.06421,1.91466 -20.3317,3.11902 -30.55965,3.63597c-4.02596,0.20349 -8.1896,-2.31677 -12.69395,-3.73233M-26.77829,71.10084c2.37302,1.27097 4.7807,2.4821 7.10816,3.83164c1.9007,1.10207 4.33063,1.97197 5.40311,3.65872c1.52383,2.3967 3.21484,4.68722 5.65295,2.82831c1.49585,-1.14053 2.28949,-4.65224 1.77518,-6.68933c-1.22247,-4.84209 -12.11612,-10.03168 -16.9798,-8.3037c-1.32645,0.47125 -2.07596,2.56632 -2.9596,4.67436z" fill="#00adfb"/><path d="M117.27557,361.97174c-9.22064,-0.87091 -17.24628,-3.64044 -24.58908,-8.61066c-3.03671,-2.05545 -1.39462,-3.93234 -0.54898,-5.96823c4.30392,-10.36176 8.6153,-20.97226 6.6832,-32.3273c-2.14038,-12.57892 -4.94351,-25.15491 -8.82443,-37.29532c-3.50446,-10.96289 -13.01669,-15.60846 -23.91754,-15.41739c-7.62064,0.13358 -15.2019,2.51285 -23.07083,3.93802c0,-3.71191 -0.07101,-8.3114 0.01294,-12.90799c0.28357,-15.52072 -2.3671,-30.5184 -8.31696,-44.84555c-1.20371,-2.8985 -0.57513,-4.4978 1.90149,-5.57864c5.88275,-2.56735 11.64465,-5.77795 17.80856,-7.26157c14.7887,-3.55966 29.33774,-8.63882 44.96597,-7.77606c12.48773,0.68945 22.65744,5.31891 29.16324,16.21771c2.15939,3.61752 3.41199,7.93851 4.31872,12.10343c1.33746,6.14346 1.81076,12.46985 2.98212,18.65582c1.98657,10.4913 -2.00406,18.59107 -9.81125,25.10452c-2.91354,2.43076 -6.32391,4.26581 -9.50638,6.37457c-0.41544,0.27524 -0.8367,0.54446 -1.23166,0.84723c-4.72903,3.62494 -6.27057,7.80212 -4.45752,12.0567c1.79135,4.20368 6.63144,6.5799 12.20084,5.10822c4.04654,-1.06931 6.61832,0.15418 9.14127,3.04727c14.08313,16.14944 18.64679,34.43283 12.64487,55.1723c-0.69168,2.39007 -1.21741,4.8284 -1.80988,7.24692c-1.92087,7.84128 -7.06198,12.00418 -15.27902,12.21616c-3.32843,0.08575 -6.66278,-0.05719 -10.45969,-0.10016M82.07025,253.96283c2.56311,-2.37268 6.15717,-4.29526 7.43759,-7.22794c1.73926,-3.98364 1.95648,-8.71622 2.3829,-13.17004c0.75198,-7.85419 -1.36896,-14.91052 -7.24179,-20.40311c-3.27081,-3.05896 -7.42102,-3.44486 -11.05792,-0.99762c-3.66443,2.46576 -6.28491,6.5628 -3.77734,10.75427c3.83908,6.41705 2.77667,12.52637 1.31375,19.14606c-1.57455,7.12469 2.58994,11.67026 10.94281,11.89838M115.05902,208.39111c-1.05588,-2.25903 -1.58874,-5.0864 -3.28607,-6.64844c-2.78168,-2.56006 -6.21487,-4.50818 -9.62408,-6.21292c-0.71973,-0.35986 -3.1987,1.18405 -3.63052,2.32059c-0.42462,1.11777 0.34586,3.76428 1.2442,4.12768c4.36954,1.76788 5.84247,5.36993 7.55029,9.2659c0.70288,1.60339 3.46994,2.30188 5.29813,3.41199c0.92001,-1.86386 1.84006,-3.72772 2.44806,-6.2648M130.62671,294.02014c-1.43768,-0.79077 -2.90369,-2.26212 -4.306,-2.20374c-1.84067,0.07666 -4.10123,0.95825 -5.24048,2.29523c-0.55154,0.64728 0.91022,3.18948 1.70673,4.74783c0.61108,1.19553 1.43271,2.42169 2.47607,3.22424c1.40872,1.08356 3.41052,2.74017 4.62347,2.37518c1.34912,-0.40598 2.76675,-2.74042 2.92813,-4.35773c0.17685,-1.77219 -1.047,-3.68414 -2.18793,-6.08102z" fill="#015699"/><path d="M172.3656,113.59198c5.44553,2.15299 10.47598,4.31992 15.65304,6.04748c1.78885,0.59692 4.19071,0.69672 5.88187,-0.00876c4.75641,-1.98416 9.25592,-4.57434 13.91782,-6.79733c5.99905,-2.86063 14.02707,-1.91055 18.30521,2.03415c5.8559,5.39951 6.63904,11.31119 1.0282,18.60608c-5.85706,7.61502 -12.31641,14.85458 -19.15027,21.61337c-17.86853,17.67221 -39.43491,28.29685 -64.20093,32.64856c-6.29974,1.10696 -10.37109,-1.18787 -15.46579,-4.93097c-6.7796,-4.98105 -3.5061,-8.51205 0.09546,-11.34924c5.64194,-4.44458 11.98184,-8.1868 18.45532,-11.34747c8.8782,-4.33484 19.01752,-6.04318 26.70785,-12.88626c0.74262,-0.66077 1.81845,-1.07318 2.30771,-1.86707c1.11908,-1.81567 1.97058,-3.79617 2.93075,-5.70975c-2.00409,-0.81229 -4.00678,-1.62808 -6.0152,-2.42953c-0.14432,-0.05762 -0.35168,0.03995 -0.4939,-0.01987c-10.39038,-4.36905 -19.66074,-0.14462 -28.9877,3.7392c-1.21109,0.5043 -2.51321,0.79007 -3.79166,1.18274c0.4346,-7.60431 1.22607,-15.14041 1.21179,-22.67502c-0.02167,-11.45227 -2.47644,-22.46259 -7.67105,-32.76299c-2.33746,-4.6349 -1.58853,-8.56729 3.07712,-11.4557c5.88544,-3.6436 12.15631,-6.65839 18.18518,-10.07794c15.04071,-8.53108 30.07626,-17.12958 47.52213,-19.75497c4.86972,-0.73286 9.96256,-1.08415 14.82401,-0.51269c7.26605,0.85413 11.01556,5.58363 11.46027,12.8582c0.8233,13.47018 -6.77203,27.08 -18.88773,32.81158c-10.77582,5.09773 -21.48578,10.53856 -33.7981,11.27297c-1.51349,0.09024 -3.71426,1.82047 -4.19229,3.25775c-0.88663,2.66577 -3.42447,5.96631 1.09088,8.51349M211.11554,62.24365c0.87421,2.05409 1.297,4.53198 2.73157,6.05997c2.00232,2.13281 5.43555,0.64871 6.10748,-2.25738c2.18182,-9.43597 -4.88507,-16.54448 -14.12927,-13.90187c-1.59091,0.4548 -2.65491,2.75282 -3.96231,4.19939c1.54709,1.15883 3.00034,2.48431 4.67041,3.42464c1.37753,0.7756 3.01181,1.09525 4.58212,2.47527M223.01697,125.54041c-2.02551,-7.77002 -4.58032,-10.41953 -9.67786,-9.30359c-1.55725,0.34094 -3.45712,1.98267 -3.92154,3.43695c-0.30667,0.96042 1.5986,2.70514 2.64145,3.99527c0.93042,1.15106 1.97406,2.23032 3.08087,3.21393c1.36853,1.21616 2.87585,3.20419 4.28223,3.17001c1.23047,-0.02994 2.40418,-2.39703 3.59485,-4.51257z" fill="#01aefb"/><path d="M304.53235,115.27103c2.0921,0.30759 3.94897,0.16318 5.33148,0.90411c2.14673,1.15054 5.12817,2.57523 5.66797,4.47641c0.87616,3.08618 0.2367,7.05039 -3.50708,8.41223c-3.07898,1.12006 -6.60175,1.87408 -9.82056,1.5871c-7.995,-0.71283 -15.9873,-1.97324 -22.901,3.46216c-5.58948,4.39432 -4.72528,12.18137 1.46728,15.75494c6.03198,3.48099 12.52899,3.24402 18.92249,1.89688c4.57367,-0.96368 6.10516,0.93918 6.64465,4.89673c1.22949,9.02072 -0.23047,16.06686 -7.27264,23.65811c-8.60547,9.27652 -17.63299,8.89475 -27.49664,6.75851c-14.9823,-3.24481 -28.32623,-10.40292 -40.44244,-19.78201c-1.29028,-0.99881 -2.40143,-2.22904 -3.75537,-3.50208c4.39301,-5.32297 8.82751,-10.2316 12.73535,-15.52866c8.00024,-10.84433 13.73639,-22.55749 7.05566,-36.01883c-2.86591,-5.77466 -7.69794,-10.57361 -11.99896,-16.29819c2.62652,-5.49759 5.76038,-12.02263 8.85364,-18.56683c0.49298,-1.04297 1.10114,-2.15891 1.15015,-3.2635c0.2948,-6.65265 4.46137,-8.68211 10.2904,-10.28789c14.04712,-3.86964 28.24548,-6.65599 42.77612,-6.04303c5.57507,0.23518 11.42029,2.3179 16.45728,4.89693c5.84662,2.99358 6.6452,13.48814 1.87622,19.08833c-6.97943,8.19597 -16.22943,12.40981 -26.75482,13.95309c-3.77905,0.55411 -7.62555,0.69891 -11.37598,1.38654c-6.43982,1.18063 -10.29865,6.16971 -9.53125,11.91116c0.70538,5.27747 5.19409,8.37384 11.93695,7.9541c7.75427,-0.4827 15.49609,-1.16559 23.6911,-1.70633M308.94202,68.7596c-1.90137,-4.34973 -5.90503,-5.17833 -9.86584,-5.12555c-1.61023,0.02144 -3.19324,2.08209 -4.7887,3.21489c1.08282,1.47989 1.97009,3.17935 3.3089,4.37181c1.11993,0.99754 3.42975,1.0341 4.04742,2.14441c1.38373,2.4875 2.83356,4.27684 5.75738,2.96059c3.18628,-1.43434 2.53955,-4.20912 1.54083,-7.56615z" fill="#00adfb"/><path d="M410.78229,79.4837c-0.85816,9.68762 -1.42078,18.98013 -2.80157,28.14938c-0.51593,3.42615 -2.73273,6.68543 -4.54596,9.80463c-2.32892,4.00638 -5.12622,7.73736 -7.5578,11.6878c-8.83813,14.35876 -21.81183,21.98575 -38.38922,23.93649c-2.11884,0.24936 -4.33392,0.70331 -6.23163,1.62448c-6.66876,3.23712 -7.88342,10.0394 -3.09796,15.73971c1.12921,1.34515 2.43182,2.89734 2.73114,4.52423c1.15131,6.25858 0.08746,7.62998 -5.87103,9.77097c-7.29309,2.62054 -14.51605,5.43622 -21.89282,8.21402c-4.46973,-3.19159 -4.00281,-6.38962 -1.05456,-11.25803c6.18243,-10.20892 4.6015,-21.50162 1.85486,-32.44986c-0.76324,-3.04221 -0.71338,-4.892 1.98956,-6.60324c10.90039,-6.90103 12.67114,-32.4325 0.58691,-39.58267c-0.7113,-0.42087 -1.44318,-0.80695 -1.42535,-0.79703c5.80609,-8.93457 11.112,-17.18867 16.53949,-25.36211c0.88769,-1.33688 2.1123,-2.75472 3.51831,-3.39549c13.53729,-6.16943 27.45599,-11.43031 42.58026,-10.8309c5.45099,0.21603 10.99329,2.35245 16.15418,4.44884c4.98358,2.02431 6.29834,6.95528 6.91321,12.37877M373.28442,111.82077c2.11169,-3.91956 4.96265,-7.62244 6.18768,-11.80188c2.93719,-10.02077 -6.27747,-19.69047 -16.61084,-17.98141c-6.42761,1.0631 -9.87134,7.84558 -6.91382,13.74794c0.65375,1.30455 1.61981,2.45253 2.59125,3.89406c-1.06903,1.50586 -2.18689,2.94238 -3.15021,4.47592c-0.96625,1.5383 -1.95825,3.10214 -2.62299,4.77994c-1.69885,4.28851 -0.38538,8.73221 3.08484,11.06863c4.01892,2.70587 9.00439,2.33667 12.27557,-1.19287c1.79572,-1.93753 3.19849,-4.2392 5.15851,-6.99033M391.45795,68.11983c-0.32367,-0.07208 -0.64453,-0.16186 -0.97144,-0.21355c-3.38953,-0.53603 -7.34308,-1.05484 -8.03912,3.31352c-0.64459,4.04561 3.0307,4.16371 6.11719,4.53967c3.85632,0.46974 5.85168,2.90164 5.6109,6.86475c-0.19879,3.27174 0.84021,6.0011 4.39746,5.80917c3.84216,-0.20732 4.44568,-3.45795 4.17847,-6.65733c-0.56555,-6.77141 -3.93378,-11.44917 -11.29346,-13.65624z" fill="#01adfb"/><path d="M-111.04877,220.30774c-0.82315,-0.09656 -1.57224,-0.05222 -1.74014,-0.3432c-3.2509,-5.63419 -7.12662,-10.56091 -13.246,-13.4487c-0.70662,-0.33347 -1.09911,-3.07745 -0.51431,-3.95819c0.72078,-1.08554 2.65976,-2.01166 4.00063,-1.923c5.62576,0.37198 14.51968,8.34274 15.2066,14.08768c0.20308,1.69842 -2.16971,3.70486 -3.70677,5.58542z" fill="#f9e4bc"/><path d="M-78.07585,276.19696c3.07397,-4.5043 5.55658,-4.53339 7.59019,-0.25751c0.96825,2.0358 1.88148,4.43393 1.69241,6.56808c-0.13031,1.47067 -2.07663,3.70181 -3.43037,3.87436c-1.26199,0.16083 -3.32729,-1.67203 -4.11166,-3.12707c-1.05984,-1.96607 -1.23328,-4.40991 -1.74057,-7.05786z" fill="#f9e4bc"/><path d="M368.3346,295.15845c-0.59967,2.52029 -1.0163,4.63925 -1.55701,6.72601c-1.25732,4.8523 -5.52832,7.80304 -10.47595,7.30533c-4.51733,-0.45444 -8.0329,-4.29221 -8.28308,-9.12317c-0.05988,-1.15701 -0.17712,-2.41339 0.17902,-3.47403c4.52942,-13.4892 -0.30896,-25.00055 -7.16852,-36.28424c-1.43311,-2.35724 -2.00848,-5.66724 -1.83282,-8.46622c0.24066,-3.83325 3.13251,-6.82932 6.83014,-6.77219c3.27856,0.05063 7.91162,1.09009 9.56061,3.39795c9.82349,13.74841 15.59778,28.90576 12.74762,46.69055z" fill="#000203"/><path d="M380.04761,215.06824c-3.22919,0.05863 -6.17175,0.61813 -8.8017,-0.05109c-1.59436,-0.40576 -2.70471,-2.71307 -4.03253,-4.16608c1.39777,-1.15997 2.82587,-3.34882 4.18823,-3.30862c7.40662,0.21841 14.92706,0.31546 22.16345,1.71802c11.78156,2.28348 16.62006,14.15405 18.21063,23.16836c0.25604,1.45096 -2.04193,4.44055 -3.60809,4.80859c-1.46564,0.34442 -3.53027,-1.84284 -5.31885,-2.93631c-0.10181,-0.06226 -0.10986,-0.30695 -0.12946,-0.47058c-1.57513,-13.18457 -10.04608,-18.19531 -22.67169,-18.7623z" fill="#f9e4bc"/><path d="M201.97846,241.79663c7.45508,-2.69486 10.89648,-1.16119 15.20862,5.45258c6.19165,9.4964 8.04114,20.23505 9.7984,31.09003c0.83496,5.15747 1.91724,10.30447 3.33496,15.33002c1.51007,5.35318 -2.42468,12.28723 -8.34473,13.9274c-5.74677,1.59216 -10.96872,-1.6947 -11.92685,-8.02438c-1.24234,-8.20703 -1.49536,-16.59619 -3.20267,-24.69c-1.3107,-6.21359 -3.70184,-12.34583 -6.54275,-18.05099c-3.16769,-6.36136 -3.32666,-9.72821 1.67502,-15.03464z" fill="#000103"/><path d="M261.61047,237.27838c-3.97498,4.07693 -7.00592,2.08566 -9.05841,-1.38235c-5.65949,-9.56232 -14.74249,-12.5155 -24.89941,-14.02002c-1.83844,-0.27237 -3.41968,-2.28189 -5.11963,-3.48947c1.7124,-1.4126 3.44959,-4.07471 5.13342,-4.04135c14.28241,0.28287 25.99396,5.74707 33.57013,18.39291c0.6687,1.11612 0.39923,2.79428 0.3739,4.54028z" fill="#f9e4bc"/><path d="M509.02661,109.91797c3.45178,3.60351 6.62848,6.98438 9.74634,10.4187c2.0744,2.28497 2.55426,4.95071 0.06268,6.99545c-2.61365,2.14496 -4.91895,0.69067 -6.78119,-1.67047c-1.6402,-2.07977 -3.39459,-4.06909 -5.0788,-6.11466c-3.05945,-3.71585 -6.72662,-6.2843 -11.70819,-6.7366c-2.80988,-0.25516 -5.22028,-1.82217 -4.12707,-4.78516c0.52508,-1.42304 3.65271,-3.05322 5.18597,-2.7135c4.25012,0.94177 8.28192,2.86871 12.70026,4.60623z" fill="#f9e4bc"/><path d="M468.56165,33.71869c0.20007,1.70264 0.81836,3.30762 0.28308,4.27299c-0.92627,1.67053 -2.35614,3.57605 -3.99609,4.1256c-0.85486,0.28647 -3.7099,-2.05959 -3.76617,-3.30238c-0.24689,-5.45349 -3.49335,-6.97517 -8.07422,-7.42432c-2.82977,-0.27747 -5.26044,-1.84676 -4.16119,-4.69801c0.59509,-1.5435 3.74591,-3.12486 5.60284,-2.97241c6.29571,0.51695 12.16418,2.32027 14.11176,9.99854z" fill="#f9e4bc"/><path d="M-32.75055,236.97174c-0.95908,-3.79291 -1.85712,-7.16303 -2.78363,-10.52533c-1.16778,-4.23773 -0.42166,-7.80093 3.19925,-10.69043c2.76785,-2.20868 4.7608,-1.92361 7.89337,0.00366c12.0069,7.38718 10.62106,19.76907 12.17639,31.00833c0.46707,3.37528 -0.005,6.99295 -0.65158,10.38431c-1.04654,5.48877 -5.67712,8.62231 -10.88574,7.8884c-5.06284,-0.71338 -8.14893,-5.2106 -8.11713,-10.87634c0.0314,-5.58716 -0.49872,-11.17743 -0.83093,-17.1926z" fill="#000204"/><path d="M-22.4259,196.07422c17.16846,1.71652 21.82813,12.35968 24.3096,24.37393c0.27899,1.3508 -1.67502,3.95914 -3.1864,4.61227c-1.06351,0.45959 -3.1843,-1.32489 -4.72089,-2.28653c-0.45734,-0.28622 -0.68298,-1.15976 -0.76486,-1.79632c-1.21216,-9.42517 -6.04376,-15.34137 -15.62244,-17.59705c-4.02051,-0.94681 -3.97775,-4.1359 -0.01501,-7.3063z" fill="#f9e4bc"/><path d="M61.12363,300.11346c-0.66775,-0.2233 -0.98776,-0.41028 -1.29703,-0.39389c-2.98645,0.15823 -5.99451,-0.93601 -5.30862,-4.00998c0.40604,-1.81964 3.86655,-4.00323 6.01337,-4.06897c1.82403,-0.05585 4.73715,2.3573 5.36911,4.27191c0.93356,2.82849 -1.47809,4.3334 -4.77682,4.20093z" fill="#f9e4bc"/><path d="M467.99066,247.0769c0.53473,1.61572 1.54297,3.01468 1.27307,4.09402c-0.46204,1.84753 -1.35071,4.09448 -2.79486,4.99374c-0.81958,0.51035 -4.07782,-0.94699 -4.54974,-2.16968c-1.88116,-4.87381 -3.57147,-9.54184 -9.00122,-11.76617c-0.82831,-0.33939 -1.55133,-3.56366 -1.00507,-4.09268c1.20184,-1.164 3.44434,-2.30176 4.91162,-1.95725c5.5849,1.31146 8.99737,5.3143 11.1662,10.89801z" fill="#f9e4bc"/><path d="M539.12555,239.30429c-3.61059,3.98166 -6.57611,3.79947 -8.18048,-0.67535c-1.59399,-4.44583 -4.15546,-7.70709 -7.94074,-10.4484c-1.13232,-0.82004 -1.89264,-3.87421 -1.24347,-4.96149c0.68201,-1.14224 3.79492,-2.12216 4.91943,-1.49973c6.75885,3.74084 11.62433,9.12549 12.44525,17.58496z" fill="#f9e4bc"/><path d="M615.84815,255.57526c-3.24213,3.49799 -5.92688,7.22992 -9.50025,9.64972c-4.06518,2.75287 -8.79077,1.39621 -11.55756,-2.10233c-2.7475,-3.47415 -2.4198,-8.54382 0.79102,-12.30972c0.93945,-1.10187 1.86786,-2.21317 3.11304,-3.68982c-1.3606,-0.99432 -2.34253,-1.77982 -3.38989,-2.46542c-4.69775,-3.07529 -6.26721,-8.15167 -3.96362,-12.92587c1.93561,-4.01172 7.00891,-5.70007 12.11145,-4.03064c13.10828,4.28867 17.49158,13.89526 12.39581,27.87408z" fill="#000204"/><path d="M621.1499,204.74356c4.16315,3.65646 8.3515,7.09289 11.67865,11.22311c2.22363,2.76047 3.69,6.38986 4.56427,9.86465c0.41217,1.63797 -1.36444,3.82666 -2.14923,5.76584c-1.76483,-0.7847 -4.24548,-1.0816 -5.17041,-2.43872c-3.96661,-5.82028 -7.53473,-11.91751 -11.12323,-17.98767c-1.54981,-2.62155 -1.66443,-5.08667 2.19995,-6.42721z" fill="#f9e4bc"/><path d="M668.86487,293.29077c2.0846,2.53668 4.18585,4.7616 5.41242,7.3941c0.37097,0.79614 -1.40314,3.31021 -2.71753,3.93186c-0.94696,0.44781 -2.90326,-0.72635 -4.14282,-1.569c-1.02234,-0.69495 -1.91895,-1.85477 -2.39691,-3.00561c-0.7395,-1.78046 -1.07471,-3.72885 -1.5813,-5.60605c1.70239,-0.43353 3.40472,-0.8671 5.42615,-1.14529z" fill="#f9e4bc"/><path d="M44.19925,112.91949c-7.20398,-2.25177 -9.84607,-6.21887 -8.40332,-12.13156c1.28711,-5.27504 5.87897,-7.54044 12.66141,-6.35997c7.61789,1.3259 14.98877,3.15047 20.7001,8.91127c5.52429,5.57211 6.86459,11.91211 3.8602,19.13999c-4.56567,10.98401 -11.52322,20.14218 -21.05188,27.3114c-3.27417,2.46344 -6.24048,5.57788 -9.87164,7.26975c-5.82877,2.71573 -10.78082,0.91202 -13.35016,-3.81744c-2.49893,-4.59976 -0.89337,-9.44269 4.41879,-13.12271c8.9635,-6.2095 17.19888,-13.06982 21.90536,-24.32114c-3.6474,-0.96948 -7.06528,-1.87799 -10.86887,-2.87958z" fill="#000406"/><path d="M56.06268,78.26491c-2.87546,-4.325 -2.20508,-6.6913 2.26862,-7.11526c3.51709,-0.3333 7.28433,0.11798 10.71338,1.05335c10.99838,3.00011 21.32379,7.41548 29.57336,15.71188c2.26413,2.27701 4.46994,4.54884 1.54575,7.55893c-2.71649,2.79628 -5.51242,1.60445 -7.80087,-0.85506c-7.2923,-7.83748 -16.75534,-11.81215 -26.66165,-14.87118c-2.94543,-0.90953 -6.17834,-0.88809 -9.63858,-1.48265z" fill="#f9e4bc"/><path d="M-26.8436,70.72174c0.94894,-1.72894 1.69845,-3.824 3.0249,-4.29526c4.86368,-1.72798 15.75732,3.46161 16.9798,8.3037c0.51431,2.03709 -0.27933,5.5488 -1.77518,6.68933c-2.43811,1.85892 -4.12912,-0.43161 -5.65295,-2.82831c-1.07248,-1.68675 -3.50241,-2.55666 -5.40311,-3.65872c-2.32745,-1.34953 -4.73514,-2.56067 -7.17346,-4.21074z" fill="#f9e4bc"/><path d="M81.66803,253.99283c-7.95065,-0.25812 -12.11514,-4.80368 -10.54059,-11.92837c1.46292,-6.61969 2.52533,-12.729 -1.31375,-19.14606c-2.50757,-4.19147 0.11291,-8.28851 3.77734,-10.75427c3.6369,-2.44724 7.78711,-2.06134 11.05792,0.99762c5.87283,5.49258 7.99378,12.54892 7.24179,20.40311c-0.42642,4.45383 -0.64365,9.1864 -2.3829,13.17004c-1.28043,2.93268 -4.87448,4.85525 -7.83981,7.25793z" fill="#000203"/><path d="M115.21503,208.72772c-0.76401,2.20047 -1.68405,4.06433 -2.60407,5.92819c-1.82819,-1.11011 -4.59524,-1.80859 -5.29813,-3.41199c-1.70783,-3.89597 -3.18076,-7.49802 -7.55029,-9.2659c-0.89835,-0.3634 -1.66882,-3.00992 -1.2442,-4.12768c0.43182,-1.13654 2.9108,-2.68045 3.63052,-2.32059c3.40921,1.70474 6.84241,3.65286 9.62408,6.21292c1.69733,1.56204 2.23019,4.3894 3.44208,6.98505z" fill="#f9e4bc"/><path d="M130.89044,294.29306c0.8772,2.12396 2.10104,4.03592 1.92419,5.80811c-0.16138,1.61731 -1.57901,3.95175 -2.92813,4.35773c-1.21295,0.36499 -3.21475,-1.29163 -4.62347,-2.37518c-1.04336,-0.80255 -1.86499,-2.02872 -2.47607,-3.22424c-0.79651,-1.55835 -2.25827,-4.10056 -1.70673,-4.74783c1.13925,-1.33697 3.39981,-2.21857 5.24048,-2.29523c1.40231,-0.05838 2.86832,1.41296 4.56973,2.47665z" fill="#f9e4bc"/><path d="M211.09064,61.81448c-1.54541,-0.95085 -3.17969,-1.27049 -4.55722,-2.0461c-1.67007,-0.94032 -3.12332,-2.26581 -4.67041,-3.42464c1.3074,-1.44656 2.3714,-3.74458 3.96231,-4.19939c9.2442,-2.64261 16.3111,4.4659 14.12927,13.90187c-0.67194,2.9061 -4.10516,4.3902 -6.10748,2.25738c-1.43457,-1.52798 -1.85736,-4.00587 -2.75647,-6.48914z" fill="#f9e4bc"/><path d="M223.021,125.93085c-1.1947,1.7251 -2.36841,4.09219 -3.59888,4.12213c-1.40637,0.03418 -2.9137,-1.95386 -4.28223,-3.17001c-1.10681,-0.98361 -2.15045,-2.06287 -3.08087,-3.21393c-1.04285,-1.29013 -2.94812,-3.03485 -2.64145,-3.99527c0.46442,-1.45428 2.36429,-3.09601 3.92154,-3.43695c5.09753,-1.11594 7.65234,1.53357 9.68188,9.69403z" fill="#f9e4bc"/><path d="M309.07239,69.11594c0.86835,3.00069 1.51507,5.77547 -1.6712,7.20981c-2.92383,1.31625 -4.37366,-0.47308 -5.75738,-2.96059c-0.61768,-1.11031 -2.92749,-1.14687 -4.04742,-2.14441c-1.33881,-1.19246 -2.22607,-2.89192 -3.3089,-4.37181c1.59546,-1.1328 3.17847,-3.19345 4.7887,-3.21489c3.96081,-0.05278 7.96448,0.77582 9.99622,5.48189z" fill="#f9e4bc"/><path d="M373.09436,112.12756c-1.76996,2.44434 -3.17273,4.746 -4.96844,6.68353c-3.27118,3.52954 -8.25665,3.89874 -12.27557,1.19287c-3.47021,-2.33642 -4.78369,-6.78012 -3.08484,-11.06863c0.66473,-1.6778 1.65674,-3.24164 2.62299,-4.77994c0.96332,-1.53354 2.08118,-2.97006 3.15021,-4.47592c-0.97143,-1.44153 -1.9375,-2.58951 -2.59125,-3.89406c-2.95752,-5.90236 0.48621,-12.68484 6.91382,-13.74794c10.33337,-1.70906 19.54804,7.96065 16.61084,17.98141c-1.22504,4.17944 -4.07599,7.88232 -6.37775,12.10867z" fill="#000406"/><path d="M391.83618,68.16063c6.98145,2.16626 10.34967,6.84402 10.91522,13.61543c0.26721,3.19939 -0.3363,6.45001 -4.17847,6.65733c-3.55725,0.19192 -4.59625,-2.53743 -4.39746,-5.80917c0.24078,-3.9631 -1.75458,-6.395 -5.6109,-6.86475c-3.08649,-0.37596 -6.76178,-0.49407 -6.11719,-4.53967c0.69604,-4.36836 4.6496,-3.84955 8.03912,-3.31352c0.32691,0.05168 0.64777,0.14146 1.34967,0.25435z" fill="#f9e4bc"/></g></g></svg>